<?xml version="1.0" encoding="iso-8859-1"?>
<!-- Generator: Adobe Illustrator 19.0.0, SVG Export Plug-In . SVG Version: 6.00 Build 0)  -->
<svg xmlns="http://www.w3.org/2000/svg" xmlns:xlink="http://www.w3.org/1999/xlink" version="1.1" id="Capa_1" x="0px" y="0px" viewBox="0 0 60 60" style="enable-background:new 0 0 60 60;" xml:space="preserve" width="512px" height="512px">
<g>
	<g>
		<path d="M45,23h-1V5c0-2.757-2.243-5-5-5s-5,2.243-5,5v7.026C33.162,11.391,32.13,11,31,11c-1.44,0-2.729,0.621-3.642,1.598    C26.505,11.057,24.882,10,23,10c-2.449,0-4.483,1.773-4.909,4.101C17.237,13.422,16.172,13,15,13c-2.757,0-5,2.243-5,5v11v19v2v4    h10v6h14v-6h10v-4v-2V33h1c2.757,0,5-2.243,5-5S47.757,23,45,23z M36,16V5c0-1.654,1.346-3,3-3s3,1.346,3,3v18h-6V16z M28,26V16    c0-1.654,1.346-3,3-3s3,1.346,3,3v7c-2.757,0-5,2.243-5,5c0,0.294,0.036,0.583,0.088,0.869c0.02,0.112,0.046,0.22,0.074,0.329    c0.016,0.063,0.024,0.128,0.043,0.19c-0.084-0.064-0.16-0.138-0.238-0.211c-0.053-0.049-0.108-0.095-0.157-0.148    c-0.089-0.097-0.168-0.202-0.244-0.31c-0.029-0.04-0.056-0.082-0.083-0.124c-0.163-0.258-0.292-0.541-0.373-0.849L28.072,27.6    C28.032,27.406,28,27.207,28,27V26z M20,18v-3c0-1.654,1.346-3,3-3s3,1.346,3,3v1v10c0,0.471-0.119,0.911-0.313,1.307l-0.11,0.188    c-0.271,0.463-0.653,0.838-1.097,1.098c-0.003,0.001-0.005,0.003-0.008,0.004c-0.2,0.117-0.416,0.202-0.638,0.269    c-0.037,0.011-0.072,0.025-0.109,0.034C23.49,28.963,23.247,29,23,29s-0.49-0.037-0.725-0.099    c-0.037-0.009-0.073-0.023-0.109-0.034c-0.221-0.067-0.437-0.153-0.637-0.269c-0.003-0.002-0.006-0.003-0.008-0.005    c-0.444-0.26-0.826-0.635-1.097-1.098l-0.109-0.187C20.119,26.911,20,26.471,20,26V18z M12,18c0-1.654,1.346-3,3-3s3,1.346,3,3v8    v1v2c0,1.654-1.346,3-3,3s-3-1.346-3-3V18z M32,58H22v-4h10V58z M42,52h-8H20h-8v-2h30V52z M42,48H12V32.998    c0.039,0.03,0.084,0.051,0.124,0.079c0.081,0.057,0.166,0.107,0.251,0.159c0.17,0.106,0.345,0.202,0.528,0.287    c0.096,0.045,0.193,0.088,0.292,0.126c0.194,0.075,0.393,0.135,0.598,0.186c0.094,0.023,0.184,0.052,0.28,0.07    C14.374,33.963,14.682,34,15,34c0.327,0,0.645-0.036,0.954-0.096c0.103-0.02,0.198-0.056,0.299-0.082    c0.203-0.053,0.403-0.108,0.595-0.185c0.112-0.045,0.215-0.101,0.323-0.153c0.169-0.082,0.335-0.168,0.494-0.268    c0.105-0.067,0.204-0.14,0.303-0.214c0.146-0.108,0.285-0.222,0.419-0.345c0.092-0.085,0.18-0.172,0.265-0.264    c0.124-0.133,0.237-0.274,0.346-0.42c0.074-0.099,0.147-0.196,0.214-0.301c0.102-0.16,0.188-0.327,0.271-0.499    c0.051-0.105,0.108-0.207,0.152-0.317c0.08-0.198,0.137-0.405,0.191-0.614c0.024-0.094,0.059-0.183,0.078-0.279    c0.003-0.017,0.011-0.033,0.014-0.05c0.015,0.012,0.033,0.02,0.048,0.032c0.173,0.134,0.354,0.254,0.545,0.364    c0.076,0.044,0.153,0.085,0.23,0.125c0.17,0.087,0.34,0.168,0.52,0.235c0.131,0.05,0.266,0.086,0.4,0.125    c0.143,0.04,0.283,0.086,0.431,0.114C22.389,30.965,22.692,31,23,31c1.437,0,2.724-0.617,3.637-1.591    c0.019,0.034,0.043,0.064,0.062,0.098c0.087,0.149,0.175,0.295,0.277,0.434c0.075,0.103,0.16,0.197,0.243,0.294    c0.148,0.173,0.305,0.336,0.475,0.488c0.113,0.101,0.229,0.199,0.35,0.289c0.099,0.073,0.198,0.144,0.303,0.21    c0.198,0.125,0.403,0.238,0.617,0.335c0.074,0.033,0.15,0.062,0.226,0.092c0.218,0.086,0.443,0.155,0.674,0.21    c0.083,0.019,0.166,0.037,0.251,0.052C30.405,31.963,30.698,32,31,32c0.01,0,0.02,0,0.031,0c0.178,0.133,0.368,0.247,0.563,0.356    c0.069,0.039,0.137,0.077,0.207,0.113c0.163,0.081,0.328,0.152,0.5,0.215c0.134,0.05,0.271,0.089,0.409,0.127    c0.133,0.036,0.262,0.075,0.399,0.1C33.403,32.965,33.699,33,34,33h8V48z M45,31h-1H34c-0.189,0-0.372-0.022-0.551-0.056    c-0.17-0.034-0.337-0.081-0.499-0.144h-0.001c-0.335-0.131-0.65-0.324-0.929-0.573l-0.008-0.007    c-0.486-0.436-0.808-0.985-0.942-1.586c-0.001-0.005-0.003-0.009-0.004-0.013C31.023,28.419,31,28.211,31,28c0-1.654,1.346-3,3-3    h2h8h1c1.654,0,3,1.346,3,3S46.654,31,45,31z"/>
		<path d="M21.301,35.282c-0.424-0.176-0.911-0.082-1.243,0.245l-3.765,3.766c-0.391,0.391-0.391,1.023,0,1.414    c0.391,0.391,1.023,0.391,1.414,0L20,38.414V45c0,0.553,0.448,1,1,1s1-0.447,1-1v-8.668C22,35.872,21.726,35.46,21.301,35.282z"/>
	</g>
</g>
<g>
</g>
<g>
</g>
<g>
</g>
<g>
</g>
<g>
</g>
<g>
</g>
<g>
</g>
<g>
</g>
<g>
</g>
<g>
</g>
<g>
</g>
<g>
</g>
<g>
</g>
<g>
</g>
<g>
</g>
</svg>
