<?xml version="1.0" encoding="utf-8"?>
<!-- Generator: Adobe Illustrator 17.0.1, SVG Export Plug-In . SVG Version: 6.00 Build 0)  -->
<!DOCTYPE svg PUBLIC "-//W3C//DTD SVG 1.1//EN" "http://www.w3.org/Graphics/SVG/1.1/DTD/svg11.dtd">
<svg version="1.1" id="Capa_1" xmlns="http://www.w3.org/2000/svg" xmlns:xlink="http://www.w3.org/1999/xlink" x="0px" y="0px"
	 width="512px" height="512px" viewBox="0 0 512 512" enable-background="new 0 0 512 512" xml:space="preserve">
<g>
	<g>
		<path d="M94.603,92.013c1.76,6.896,7.956,11.711,15.078,11.711c1.257,0,2.514-0.154,3.742-0.458l25.776-6.402
			c2.92-0.701,3.679,1.572,3.679,2.875V263.18c0,8.533,6.951,15.482,15.489,15.482h171.898c8.542,0,15.497-6.949,15.497-15.482
			V99.776c0-1.131,0.325-3.025,2.545-3.025c0.345,0,0.739,0.052,1.124,0.15l25.658,6.369c1.223,0.304,2.487,0.459,3.745,0.459
			c7.123,0,13.32-4.816,15.074-11.711l8.878-34.799c1.024-4.016,0.422-8.18-1.703-11.732c-2.119-3.546-5.5-6.051-9.521-7.048
			l-81.39-20.206c-4.897-1.246-9.948-1.883-15.039-1.883l-19.914-0.033l-0.951,3.933c-3.37,14.029-15.792,23.825-30.209,23.825
			c-14.42,0-26.844-9.795-30.21-23.825l-0.95-3.933h-18.682l-0.917,0.038c-5.048,0-10.095,0.637-14.959,1.872L96.954,38.439
			c-4.025,0.997-7.402,3.502-9.527,7.048c-2.12,3.547-2.727,7.716-1.7,11.732L94.603,92.013z M96.235,50.76
			c0.709-1.186,1.838-2.023,3.188-2.352l27.305-6.781l5.246,20.648l32.343-8.219l-5.202-20.467l21.746-5.401
			c4.07-1.036,8.253-1.565,12.725-1.565l11.443-0.038c5.726,16.532,21.243,27.758,39.041,27.758
			c17.801,0,33.316-11.227,39.034-27.758l12.088,0.038c4.175,0,8.38,0.528,12.482,1.573l81.416,20.211
			c1.344,0.334,2.471,1.172,3.179,2.352c0.713,1.181,0.912,2.571,0.566,3.923l-8.878,34.799c-0.702,2.758-3.619,4.53-6.391,3.826
			l-25.653-6.369c-1.203-0.299-2.416-0.447-3.601-0.447c-7.309,0-12.812,5.713-12.812,13.29v163.41c0,2.877-2.348,5.215-5.225,5.215
			H158.367c-2.88,0-5.222-2.338-5.222-5.215V99.744c0-7.578-5.513-13.29-12.823-13.29c-1.18,0-2.397,0.148-3.597,0.447
			l-25.776,6.402c-2.825,0.7-5.694-1.068-6.402-3.826l-8.876-34.799C95.327,53.331,95.525,51.941,96.235,50.76z"/>
	</g>
</g>
<g>
	<g>
		<path d="M366.283,488.985l-15.207-155.866c-0.343-3.516-2.155-6.537-4.794-8.493v-27.162
			c0-4.371-3.556-7.927-7.927-7.927H150.157c-4.371,0-7.927,3.556-7.927,7.927v27.161c-2.64,1.956-4.451,4.977-4.794,8.493
			l-15.206,155.867c-0.217,2.221,0.519,4.442,2.018,6.096c1.5,1.653,3.639,2.601,5.871,2.601h90.868
			c5.876,0,10.858-4.204,11.847-9.995l11.17-65.426c0.02-0.12,0.048-0.166,0.047-0.166c0.078-0.062,0.334-0.062,0.406-0.006
			c0,0,0.03,0.045,0.051,0.171l11.17,65.426c0.988,5.792,5.971,9.996,11.847,9.996h90.868c2.232,0,4.371-0.948,5.871-2.601
			C365.764,493.428,366.499,491.206,366.283,488.985z M343.441,333.865l4.698,48.15c-3.805-2.023-9.898-5.721-16.111-11.382
			c-12.312-11.22-19.723-24.894-22.078-40.694h29.165C341.363,329.94,343.223,331.628,343.441,333.865z M149.901,297.464
			c0-0.141,0.114-0.256,0.256-0.256h188.199c0.141,0,0.256,0.115,0.256,0.256v24.803h-70.063v-12.529
			c0-2.119-1.717-3.835-3.835-3.835c-2.119,0-3.835,1.717-3.835,3.835v12.53h-33.241v-12.53c0-2.119-1.717-3.835-3.835-3.835
			c-2.118,0-3.835,1.717-3.835,3.835v12.53h-70.064V297.464z M269.06,391.564c0,2.397-1.95,4.347-4.347,4.347
			s-4.347-1.95-4.347-4.347s1.95-4.347,4.347-4.347S269.06,389.167,269.06,391.564z M228.147,391.564
			c0,2.397-1.95,4.347-4.347,4.347s-4.347-1.95-4.347-4.347s1.95-4.347,4.347-4.347S228.147,389.167,228.147,391.564z
			 M145.071,333.864c0.218-2.237,2.078-3.925,4.327-3.925h29.165c-2.355,15.8-9.766,29.474-22.078,40.694
			c-6.212,5.661-12.306,9.359-16.111,11.382L145.071,333.864z M130.119,490.011c-0.031,0-0.113,0-0.189-0.084
			c-0.076-0.084-0.068-0.165-0.065-0.196l9.636-98.775c0.864-0.361,4.362-1.887,9.107-4.818L138.494,490.01L130.119,490.011
			L130.119,490.011z M267.525,490.011c-2.126,0-3.927-1.521-4.285-3.616l-11.171-65.426c-0.663-3.882-3.876-6.592-7.814-6.592
			c-3.938,0-7.151,2.711-7.814,6.592l-11.17,65.426c-0.358,2.095-2.159,3.616-4.285,3.616h-74.785l10.678-109.666
			c1.488-1.172,3.01-2.447,4.545-3.835c17.122-15.491,23.067-33.3,24.882-46.57h33.658v50.238
			c-4.751,1.605-8.183,6.101-8.183,11.387c0,6.627,5.391,12.018,12.018,12.018c6.627,0,12.018-5.391,12.018-12.018
			c0-5.285-3.432-9.782-8.183-11.387v-50.238h33.241v50.238c-4.751,1.605-8.183,6.101-8.183,11.387
			c0,6.627,5.391,12.018,12.018,12.018c6.627,0,12.018-5.391,12.018-12.018c0-5.285-3.432-9.782-8.183-11.387v-50.238h33.66
			c3.058,22.542,15.073,37.697,24.88,46.57c1.535,1.388,3.057,2.663,4.545,3.835l10.678,109.666H267.525z M358.583,489.927
			c-0.076,0.084-0.158,0.084-0.189,0.084h-8.375l-10.114-103.874c4.743,2.93,8.241,4.457,9.107,4.818l9.636,98.776
			C358.651,489.761,358.659,489.843,358.583,489.927z"/>
	</g>
</g>
</svg>
