<?xml version="1.0" encoding="iso-8859-1"?>
<!-- Generator: Adobe Illustrator 19.0.0, SVG Export Plug-In . SVG Version: 6.00 Build 0)  -->
<svg xmlns="http://www.w3.org/2000/svg" xmlns:xlink="http://www.w3.org/1999/xlink" version="1.1" id="Capa_1" x="0px" y="0px" viewBox="0 0 512 512" style="enable-background:new 0 0 512 512;" xml:space="preserve" width="512px" height="512px">
<g>
	<g>
		<path d="M498.615,47.454h-45.561c0.398-6.759,0.685-13.56,0.83-20.402c0.085-3.891-1.429-7.721-4.163-10.518    c-2.725-2.778-6.518-4.372-10.409-4.372H187.707c-3.888,0-7.681,1.593-10.414,4.379c-2.728,2.788-4.243,6.62-4.157,10.505    c0.145,6.851,0.424,13.656,0.823,20.408h-45.555c-7.38,0-13.385,6.006-13.385,13.388c0,41.241,11.327,80.18,31.893,109.642    c4.552,6.523,9.475,12.428,14.695,17.701c-1.9-0.069-3.806-0.116-5.723-0.116C69.93,188.068,0,257.998,0,343.953    s69.93,155.885,155.885,155.885c25.215,0,49.047-6.024,70.143-16.699h185.017c6.893,0,12.5-5.607,12.5-12.5v-15.663    c0-6.893-5.607-12.5-12.5-12.5h-16.421V423c0-4.143-3.358-7.5-7.5-7.5c-4.142,0-7.5,3.357-7.5,7.5v19.476H276.595    c1.241-1.518,2.453-3.06,3.637-4.623c0.643-0.823,1.278-1.659,1.905-2.508h75.04c5.79,0,10.5-4.71,10.5-10.5v-33.751    c0-5.79-4.71-10.5-10.5-10.5H307.41c0.782-3.235,1.467-6.508,2.044-9.817h70.169V394c0,4.143,3.358,7.5,7.5,7.5    c4.142,0,7.5-3.357,7.5-7.5v-25.724c0-6.893-5.607-12.5-12.5-12.5h-16.419v-16.622c0-7.699-6.264-13.963-13.962-13.963H339.16    v-16.639h9.649c6.876,0,12.471-5.595,12.471-12.472v-24.023c17.388-11.776,33.351-30.069,47.066-54.246    c27.355-3.364,52.742-20.071,71.761-47.327C500.673,141.023,512,102.085,512,60.842C512,53.46,505.996,47.454,498.615,47.454z     M178.571,92.351c3.677,24.841,9.123,48.467,16.203,70.197c-3.729-3.927-7.427-8.503-11.046-13.688    c-9.158-13.122-16.92-34.079-20.989-56.509H178.571z M159.212,161.898c-18.56-26.588-28.899-61.85-29.186-99.444h45.035    c0.439,5.002,0.94,9.972,1.516,14.896h-16.842c-3.67,0-7.137,1.604-9.525,4.419c-2.364,2.801-3.378,6.479-2.78,10.094    c4.254,25.63,13.224,50.146,23.997,65.58c10.354,14.838,21.692,25.576,33.136,31.47c1.165,2.768,2.358,5.494,3.582,8.177    c-5.942-2.121-12.049-3.891-18.297-5.284C178.534,184.766,168.126,174.67,159.212,161.898z M155.886,203.069    c12.516-0.001,24.654,1.649,36.216,4.727l-36.216,26.313l-36.216-26.313C131.232,204.718,143.369,203.069,155.886,203.069z     M102.255,213.684l46.13,33.517V256c0,4.143,3.358,7.5,7.5,7.5c4.142,0,7.5-3.357,7.5-7.5v-8.8l46.13-33.516    c23.722,9.802,44.207,25.895,59.354,46.198l-16.911,52.046l-38.671,11.458l-49.902-36.257V285c0-4.143-3.358-7.5-7.5-7.5    c-4.142,0-7.5,3.357-7.5,7.5v2.13l-50.328,36.566l-36.921-9.692l-17.781-54.722C58.457,239.263,78.768,223.389,102.255,213.684z     M279.353,276.159c10.05,18.23,16.182,38.909,17.248,60.898l-29.962-21.768L279.353,276.159z M202.798,334.306l-17.919,55.149    h-57.987l-17.918-55.149l46.912-34.084L202.798,334.306z M32.83,275.424l13.337,41.049L15.06,339.938    C15.718,316.576,22.095,294.624,32.83,275.424z M38.602,421.922c-12.591-18.877-20.746-40.949-22.974-64.72l40.076-29.117    l38.786,10.182l18.941,58.299l-19.095,25.356H38.602z M50.125,436.922h42.377l12.474,38.395    C83.718,467.05,64.948,453.764,50.125,436.922z M189.678,480.732c-10.831,2.677-22.147,4.106-33.793,4.106    c-11.484,0-22.647-1.392-33.341-3.996l-16.216-49.909l19.938-26.477h60.217l20.428,23.239L189.678,480.732z M207.269,475.136    l13.187-40.587h43.231C248.669,452.39,229.32,466.468,207.269,475.136z M408.545,457.476v10.663H249.994    c4.389-3.334,8.595-6.894,12.603-10.663H408.545z M274.723,419.549h-55.001l-21.064-23.962l18.774-57.782l38.839-11.508    l40.034,29.086C294.412,378.853,286.744,400.718,274.723,419.549z M352.677,395.594v24.751h-60.951    c4.435-7.855,8.206-16.131,11.242-24.751H352.677z M307.714,308.552h16.446v16.639h-13.522    C309.958,319.548,308.982,313.995,307.714,308.552z M350.704,340.191v15.585h-39.379c0.294-3.903,0.446-7.846,0.446-11.823    c0-1.258-0.018-2.511-0.048-3.762H350.704z M346.279,293.553L346.279,293.553h-42.874c-2.096-6.117-4.564-12.061-7.373-17.811    h50.247V293.553z M400.332,201.052c-14.125,27.739-30.91,47.964-49.115,59.69h-63.571c-14.341-22.628-34.344-41.328-58.005-54.09    c-0.996-1.833-1.982-3.693-2.953-5.6c-23.407-45.974-37.091-107.709-38.545-173.891h250.734    c-0.632,28.769-3.571,56.829-8.737,83.407c-0.79,4.066,1.865,8.003,5.931,8.793c4.069,0.789,8.003-1.865,8.794-5.932    c1.348-6.935,2.547-13.966,3.6-21.08h15.816c-4.068,22.435-11.831,43.389-20.989,56.509c-3.617,5.183-7.313,9.756-11.039,13.68    c1.651-5.068,3.224-10.238,4.7-15.52c1.115-3.989-1.215-8.127-5.204-9.242c-3.991-1.116-8.128,1.215-9.242,5.205    C416.536,164.341,409.076,183.879,400.332,201.052z M467.806,161.899c-13.953,19.995-31.571,33.426-50.62,38.848    c1.817-3.839,3.561-7.796,5.258-11.828c11.447-5.893,22.79-16.633,33.146-31.475c10.772-15.434,19.744-39.949,23.999-65.588    c0.596-3.617-0.419-7.296-2.796-10.106c-2.375-2.796-5.841-4.399-9.509-4.399h-16.862c0.577-4.934,1.093-9.897,1.531-14.896    h45.041C496.706,100.051,486.367,135.313,467.806,161.899z" fill="#222129"/>
	</g>
</g>
<g>
	<g>
		<path d="M313.51,71.516c-37.579,0-68.152,30.573-68.152,68.153c0,37.578,30.573,68.15,68.152,68.15    c37.579,0,68.152-30.572,68.152-68.15C381.662,102.089,351.089,71.516,313.51,71.516z M313.51,192.819    c-29.308,0-53.152-23.843-53.152-53.15c0-29.309,23.844-53.153,53.152-53.153c29.308,0,53.152,23.845,53.152,53.153    C366.662,168.977,342.818,192.819,313.51,192.819z" fill="#222129"/>
	</g>
</g>
<g>
	<g>
		<path d="M323.558,130.348h-20.095c-2.058,0-3.732-1.673-3.732-3.729v-2.364c0-2.057,1.674-3.729,3.732-3.729h23.049    c4.142,0,7.5-3.357,7.5-7.5s-3.358-7.5-7.5-7.5h-5.502v-5.502c0-4.143-3.358-7.5-7.5-7.5c-4.142,0-7.5,3.357-7.5,7.5v5.502h-2.547    c-10.329,0-18.732,8.402-18.732,18.729v2.364c0,10.327,8.403,18.729,18.732,18.729h20.095c2.057,0,3.73,1.673,3.73,3.729v2.366    c0,2.056-1.673,3.728-3.73,3.728h-27.78c-4.142,0-7.5,3.357-7.5,7.5s3.358,7.5,7.5,7.5h10.232v6.096c0,4.143,3.358,7.5,7.5,7.5    c4.142,0,7.5-3.357,7.5-7.5v-6.096h2.548c10.328,0,18.73-8.401,18.73-18.728v-2.366    C342.288,138.749,333.885,130.348,323.558,130.348z" fill="#222129"/>
	</g>
</g>
<g>
	<g>
		<path d="M451.621,274.575c-13.701-5.68-16.86-8.841-22.534-22.545c-1.639-3.967-5.472-6.53-9.765-6.53    c-4.288,0-8.12,2.561-9.763,6.525c-5.676,13.709-8.835,16.871-22.534,22.549c-3.963,1.642-6.524,5.475-6.524,9.765    c0,4.293,2.563,8.126,6.521,9.762c13.701,5.681,16.86,8.842,22.539,22.557c1.643,3.961,5.475,6.521,9.761,6.521    c4.292,0,8.124-2.563,9.763-6.525c5.676-13.709,8.835-16.871,22.528-22.548c3.967-1.639,6.53-5.472,6.53-9.766    C458.143,280.048,455.581,276.215,451.621,274.575z M419.321,302.123c-4.467-8.303-9.476-13.313-17.779-17.784    c8.303-4.47,13.312-9.48,17.779-17.783c4.467,8.303,9.476,13.313,17.778,17.783C428.798,288.809,423.789,293.819,419.321,302.123z    " fill="#222129"/>
	</g>
</g>
<g>
	<g>
		<path d="M101.991,77.44c-10.721-4.444-13.003-6.728-17.443-17.451c-1.548-3.746-5.168-6.167-9.223-6.167    c-4.049,0-7.667,2.417-9.221,6.162C61.663,70.713,59.38,72.997,48.66,77.44c-3.742,1.551-6.16,5.17-6.16,9.221    c0,4.051,2.418,7.67,6.159,9.221c10.721,4.443,13.003,6.728,17.448,17.463c1.553,3.739,5.171,6.155,9.218,6.155    c4.053,0,7.673-2.42,9.221-6.162c4.441-10.729,6.724-13.013,17.442-17.455c3.743-1.551,6.162-5.17,6.162-9.222    S105.732,78.99,101.991,77.44z M75.325,98.123c-3.02-4.99-6.469-8.44-11.458-11.462c4.988-3.021,8.438-6.472,11.458-11.461    c3.02,4.989,6.47,8.439,11.459,11.461C81.796,89.682,78.346,93.133,75.325,98.123z" fill="#222129"/>
	</g>
</g>
<g>
</g>
<g>
</g>
<g>
</g>
<g>
</g>
<g>
</g>
<g>
</g>
<g>
</g>
<g>
</g>
<g>
</g>
<g>
</g>
<g>
</g>
<g>
</g>
<g>
</g>
<g>
</g>
<g>
</g>
</svg>
