<?xml version="1.0" encoding="utf-8"?>
<!-- Generator: Adobe Illustrator 19.2.1, SVG Export Plug-In . SVG Version: 6.00 Build 0)  -->
<svg version="1.1" id="Layer_1" xmlns="http://www.w3.org/2000/svg" xmlns:xlink="http://www.w3.org/1999/xlink" x="0px" y="0px"
	 viewBox="0 0 245.6 352" style="enable-background:new 0 0 245.6 352;" xml:space="preserve">
<style type="text/css">
	.st0{fill:none;stroke:#000000;stroke-miterlimit:10;}
	.st1{fill:#EFD51F;}
</style>
<g>
	<path d="M153.9,211.7c-0.8,4.4-1.4,8.8-2.3,13.1c-2.2,10.8-2,21.8-2.6,32.8c-0.1,2.4-0.9,4.7-1,7.1c-0.2,3.4-0.8,7-0.1,10.3
		c2.3,10.2,2.4,20.3,0.1,30.5c-1.3,5.7-0.6,11.4,0.3,17.3c0.8,4.9,1.5,10.1-0.1,15.2c-0.8,2.4-2.2,3.6-4.8,3.8
		c-3.4,0.1-6.6-0.3-9.6-2.1c-3-1.8-3.3-4.6-0.9-7c0.4-0.5,0.9-0.9,1.4-1.3c2.1-1.6,2.6-3.6,2.8-6.2c0.3-5-1.6-9.4-3-14
		c-3-9.7-4.5-19.6-4.1-29.7c0.3-10.7,0.2-21.4-1.3-32c-0.9-6.4-2.3-12.7-2.9-19c-0.9-8.5-1.6-17.1-1.8-25.6
		c-0.2-13.6-0.3-27.2,0.4-40.8c0.7-14.3,2.4-28.5,3.6-42.7c0.1-0.7,0.1-1.4,0-2.1c-0.9,4.2-1.8,8.4-2.9,12.5c-0.4,1.8-1.2,3.5-2,5.1
		c-1.3,2.9-1.7,5.8-2,9c-0.5,6.2-1.5,12.3-2.7,18.4c-1.4,6.9-3.6,13.7-3.6,20.8c0,2.5,0.6,4.7,2.1,6.7c3.2,4.4,3.7,9.5,3.9,14.7
		c0.1,1.3-0.5,2.8-2,2.7c-0.7-0.1-1.4-1.6-1.7-2.6c-0.5-1.4-0.6-2.9-1-4.6c-2,1.8-2,4.7-0.4,7c1.1,1.6,2.5,2.9,3.5,4.5
		c0.5,0.8,0.5,2,0.7,3c-1,0.1-2.2,0.5-3.1,0.1c-5.8-2.4-9.8-6.4-10.3-13c-0.4-5-0.9-10-1.2-15c-0.5-8.3-0.9-16.7-1.4-25
		c-0.3-6.3,0.5-12.5,1.8-18.7c1.4-7.3,2.4-14.8,3.1-22.2c0.7-7,0.7-14.1,1.1-21.2c0.3-5.2,1.6-10.3,5.4-13.9
		c2.7-2.6,6.3-4.4,9.7-6.2c4.4-2.3,9.1-4.1,13.5-6.6c3.5-1.9,4.1-6.1,1.6-9.2c-2.6-3.3-5.3-6.4-6.4-10.6c-0.1-0.2-0.2-0.6-0.4-0.6
		c-2.6-0.8-2.5-3.1-2.9-5.2c-0.3-1.4-0.3-2.8-0.5-4.2c-0.1-0.6,0.2-1.8-1.2-1.3c0,0-0.6-0.9-0.5-1.4c0.2-1.2,0.5-2.5,0.4-3.5
		c-0.5-0.7-1.3-1.4-1.3-2.2c-0.2-2.5,0-4.9,0-7.4c0-1,1.1-2.3-0.5-3.2c-0.2-0.1,0.2-1.6,0.6-2.3c1.4-2.3,2.9-4.5,4.3-6.7
		c0.4-0.6,0.8-1.1,1.2-1.8c-0.4-0.2-0.7-0.3-1.1-0.5c2.4-2,2.8-6.3,7.2-5.7c0.3,0,0.6,0,0.8-0.2c3-3.4,7.2-2.8,11.2-3.7
		c-0.2,0.5-0.3,0.8-0.6,1.6c5.7-1,11.2-2.8,16,0.9c-0.1,0-0.6,0.1-1.5,0.4c1.2,0.5,2,1.1,2.8,1.2c4.6,0.7,7.5,3.8,10.3,7
		c1.2,1.4,1.7,3.5,2.2,5.4c0.6,2.7,1,5.4,1.3,8.1c0.1,0.8-0.4,1.7-0.4,2.6c0,2.3,0.2,4.5,0.3,6.9c-0.5-0.2-1-0.4-1.6-0.7
		c0.3,2,0.6,3.8,0.9,5.6c-0.2,0-0.3-0.1-0.5-0.1c-0.4,0.7-1.2,1.4-1.2,2.2c-0.3,3-0.4,6-3.4,7.8c-0.3,0.2-0.3,0.7-0.4,1.1
		c-0.9,3.6-2.6,6.6-5.2,9.3c-3.3,3.6-4.1,8.5,1.6,11.3c4.7,2.2,9.4,4.6,14.2,6.6c8.8,3.7,12.6,10.5,13.2,19.7
		c0.7,11.5,1.3,23,2.4,34.5c0.5,4.9,2.3,9.6,2.8,14.5c0.6,5.2,0.5,10.6,0.4,15.9c-0.2,7.8-0.7,15.5-1.2,23.3
		c-0.3,5.1-0.6,10.3-1.3,15.4c-0.9,6-5.3,9.3-10.6,11.4c-0.7,0.3-1.8-0.3-2.7-0.5c0.2-0.8,0.1-1.8,0.6-2.5c1-1.5,2.5-2.8,3.3-4.4
		c0.9-1.6,1.3-3.5,1.7-5.3c0.1-0.5-0.7-1.2-1-1.9c-0.4,0.6-1,1.1-1.2,1.8c-0.3,1.1-0.2,2.4-0.6,3.5c-0.2,0.7-1,1.1-1.6,1.7
		c-0.6-0.6-1.5-1.1-1.7-1.8c-0.3-0.9-0.2-2-0.1-2.9c0.4-4.7,1.1-9.3,4.1-13.2c3-3.9,2.1-8.4,1.3-12.7c-1.4-7.1-3.2-14-4.5-21.1
		c-0.8-4.1-0.7-8.4-1.3-12.6c-0.3-2.6-1-5.2-1.8-7.8c-1.7-5.7-3.5-11.3-4.9-16c0.2,2.2,0.6,5.4,0.9,8.7c0.8,9.9,1.9,19.7,2.3,29.6
		c0.6,14.7,0.8,29.4,0.9,44.1c0.1,14.7-2,29.2-4.4,43.7c-1.3,7.8-1.4,15.8-1.8,23.7c-0.2,4.9,0,9.8,0,14.7c0,10.8-2.6,21.1-5.9,31.3
		c-1.1,3.4-0.8,7.4-0.9,11.1c0,0.8,0.9,1.7,1.5,2.5c0.8,0.9,1.9,1.7,2.8,2.6c1.8,1.9,1.5,4.8-0.7,6.2c-3.6,2.4-7.6,3-11.8,2.2
		c-2.2-0.5-3.3-2.4-3.4-4.4c-0.1-5.1-0.4-10.4,0.3-15.4c0.9-5.7,1.1-11.3-0.1-16.9c-2.1-9.6-2.2-19.1,0.2-28.6
		c1-4.1,0.6-8.2-0.1-12.4c-0.8-5-1.3-10.1-1.3-15.2c-0.1-12.1-1.9-24-4.5-35.7c-0.1-0.4-0.3-0.8-0.4-1.1
		C154.4,211.7,154.2,211.7,153.9,211.7z"/>
	<line class="st0" x1="237.3" y1="351.3" x2="41.6" y2="351.3"/>
	<line class="st0" x1="183.6" y1="197.2" x2="0.9" y2="197.2"/>
	<line class="st0" x1="172.7" y1="170.7" x2="0.9" y2="170.7"/>
	<line class="st0" x1="196.6" y1="121.1" x2="0.9" y2="121.1"/>
	<line class="st0" x1="196.6" y1="0.7" x2="0.9" y2="0.7"/>
	<line class="st0" x1="40.7" y1="351.3" x2="40.7" y2="0.7"/>
	<g id="numbers_2_">
		<g>
			<rect class="st1" width="39.8" height="22.6"/>
			<g>
				<path d="M19.8,7.6L19.8,7.6l-2,1.1l-0.3-1.2L20,6.2h1.3v11.5h-1.5V7.6z"/>
			</g>
		</g>
		<g>
			<rect y="109.8" class="st1" width="39.8" height="22.6"/>
			<g>
				<path d="M16.4,127.5v-1l1.2-1.2c2.9-2.8,4.3-4.3,4.3-6c0-1.2-0.6-2.2-2.3-2.2c-1,0-1.9,0.5-2.4,1l-0.5-1.1
					c0.8-0.7,1.9-1.2,3.3-1.2c2.5,0,3.5,1.7,3.5,3.3c0,2.1-1.5,3.8-4,6.2l-0.9,0.8v0h5.2v1.3L16.4,127.5L16.4,127.5z"/>
			</g>
		</g>
		<g>
			<rect y="157.6" class="st1" width="39.8" height="22.6"/>
			<g>
				<path d="M16.8,173.5c0.4,0.3,1.5,0.7,2.5,0.7c2,0,2.6-1.3,2.6-2.2c0-1.6-1.5-2.3-3-2.3h-0.9v-1.2h0.9c1.1,0,2.6-0.6,2.6-1.9
					c0-0.9-0.6-1.7-2-1.7c-0.9,0-1.8,0.4-2.3,0.8l-0.4-1.1c0.6-0.4,1.8-0.9,3-0.9c2.3,0,3.3,1.3,3.3,2.7c0,1.2-0.7,2.2-2.1,2.7v0
					c1.4,0.3,2.6,1.3,2.6,3c0,1.8-1.4,3.5-4.2,3.5c-1.3,0-2.4-0.4-3-0.8L16.8,173.5z"/>
			</g>
		</g>
		<g>
			<rect y="184.2" class="st1" width="39.8" height="22.6"/>
			<g>
				<path d="M21.2,201.8v-3.1h-5.3v-1l5.1-7.3h1.7v7.2h1.6v1.2h-1.6v3.1L21.2,201.8L21.2,201.8z M21.2,197.5v-3.8
					c0-0.6,0-1.2,0.1-1.8h-0.1c-0.4,0.7-0.6,1.2-1,1.7l-2.8,3.9v0L21.2,197.5L21.2,197.5z"/>
			</g>
		</g>
	</g>
</g>
</svg>
