<?xml version="1.0" encoding="utf-8"?>
<!-- Generator: Adobe Illustrator 19.2.1, SVG Export Plug-In . SVG Version: 6.00 Build 0)  -->
<svg version="1.1" id="Layer_1" xmlns="http://www.w3.org/2000/svg" xmlns:xlink="http://www.w3.org/1999/xlink" x="0px" y="0px"
	 viewBox="0 0 254.4 528.8" style="enable-background:new 0 0 254.4 528.8;" xml:space="preserve">
<style type="text/css">
	.st0{fill:none;stroke:#000000;stroke-miterlimit:10;}
	.st1{fill:#EFD51F;}
</style>
<path d="M154.8,288.3c-0.5,2.7-1.2,5.3-1.6,8c-2.8,17.1-3.8,34.4-5,51.7c-0.7,9.8-0.7,19.6-1.5,29.4c-0.7,8.3-2.3,16.4-3.1,24.7
	c-0.7,6.7-1.6,13.4-1.3,20.1c0.5,13.9,0.1,27.6-1.4,41.4c-0.6,5.5-1.8,11-0.1,16.4c1.5,4.9,1.7,9.9,1.5,15c-0.1,4,1.3,8.1,1.5,12.1
	c0.2,3.6-0.1,7.3-0.7,10.8c-0.6,3-2.9,4.7-6.1,4.8c-4.9,0.1-9.7-0.3-14.2-2.7c-3.9-2.1-4.9-4.9-3.3-8.9c1.5-3.7,3.2-7.4,4.8-11
	c1.4-3.1,1.5-6.1-0.1-9.2c-0.8-1.6-1.3-3.6-1-5.4c0.8-5.4-0.5-10.5-2.1-15.6c-3-9.5-6.1-18.9-8.9-28.4c-1-3.5-1.4-7.3-1.6-11
	c-0.6-13.8,0.3-27.6,1.8-41.4c1-9.7,0.7-19.4-1.5-29c-2.8-12.2-4.1-24.7-4.6-37.2c-0.7-20.6-1.2-41.1-1.9-61.7
	c-0.4-12.4,2.2-24.3,5.3-36.2c0.9-3.5,1.6-7.2,1.5-10.8c-0.2-12.5-0.7-24.9-1.2-37.4c-0.1-1.9-0.6-3.8-1.4-5.7
	c-0.5,4-0.9,7.9-1.6,11.9c-0.4,2.5-1.4,4.9-1.9,7.4c-0.5,2.1-0.9,4.2-1,6.3c-0.2,3.4,0.1,6.9-0.1,10.3c-0.4,8.2-1.6,16.2-4.2,24
	c-3.3,10-6.9,20-10.2,30c-0.9,2.9-1.4,6,0.9,8.6c3.1,3.6,4.7,7.7,5,12.5c0.2,2.9,0.7,5.8,1,8.7c0.1,0.8,0,1.7-0.1,2.6
	c-0.2,1.6-1,2.9-2.8,2.9c-1.9,0-2.6-1.3-3-2.9c-0.3-1.6-0.3-3.3-0.6-4.9c-0.1-0.7-0.6-1.3-1-1.9c-0.6,0.6-1.7,1-1.8,1.7
	c-0.7,2.6,0.1,5.1,1.6,7.3c1.6,2.4,3.6,4.5,5.1,6.9c0.6,0.9,0.6,2.3,0.9,3.5c-1.3,0.2-2.8,0.9-3.8,0.4c-4-1.9-7.8-4.1-11.6-6.4
	c-0.9-0.6-1.6-1.9-2.1-2.9c-0.9-2.2-1.9-4.4-2.3-6.7c-0.4-2-0.2-4.2-0.3-6.3c-0.2-5.9-0.5-11.9-0.6-17.8c-0.4-16.2-1-32.4-1-48.5
	c0-5.8,1.6-11.6,2.6-17.3c0.8-4.3,2.1-8.5,2.9-12.8c0.7-3.6,1-7.4,1.2-11c0.5-8.4,0.7-16.9,1.3-25.3c0.2-3.2,1.5-6.4,2.1-9.6
	c0.5-3.1,0.9-6.3,1.1-9.5c0.4-5.4,0.1-10.8,0.9-16.1c1.4-9.6,7.8-15,16.6-18.1c10.3-3.6,20.5-7.2,30.8-10.7c2.4-0.8,3.6-2.3,4.2-4.6
	c0.3-1.5,0.6-2.9,0.9-4.4c0.5-2.4,0.3-4.3-1.5-6.4c-1.5-1.8-1.7-4.7-2.5-7.2c-0.2-0.5-0.3-1.4-0.6-1.4c-2.1-0.4-2-2.1-2.6-3.5
	c-1-2.5-2.4-4.9-3.3-7.4c-1.1-3.1-0.5-6.2,0.1-9.5c0.8,0.4,1.4,0.7,2,0.9c0-0.2,0.1-0.4,0.1-0.6c-1.4-6.3-1.6-12.6-0.4-19
	c0.7-3.9,3.6-6.4,6.2-9.1c8.4-8.9,18.7-9.4,29.7-7c4.8,1,8,4.4,11.5,7.5c7.8,6.7,6.6,15.5,5.8,24.3c0,0.4-0.2,0.7-0.2,1
	c-0.1,0.8-0.2,1.7-0.3,2.7c0.7-0.2,1.3-0.4,2.2-0.8c0.6,4,1.2,7.9-0.7,11.6c-1.1,2.1-2,4.4-3.1,6.6c-0.4,0.8-1.3,1.4-1.9,2.1
	c-0.3,0.4-0.7,0.8-0.8,1.3c-0.4,1.6-0.6,3.2-1.1,4.8c-0.4,1.1-0.9,2.3-1.7,3.1c-1.3,1.3-1.8,2.6-1.4,4.4c0.5,2.4,0.7,4.8,1.6,7.1
	c0.5,1.2,1.8,2.6,3,3c7.9,2.8,15.9,5.3,23.7,8.1c4.6,1.7,9.2,3.5,13.6,5.7c7.1,3.6,10.3,9.9,11.1,17.5c0.4,3.9,0.7,7.9,0.6,11.8
	c-0.2,5.4,0.7,10.5,2,15.6c1.2,4.5,1.4,9.3,1.7,14c0.4,6.2,0.1,12.5,0.8,18.7c0.7,6.2,2.1,12.4,3.3,18.5c1.9,9.3,4,18.6,3.6,28.2
	c-0.5,11.6-1,23.2-1.3,34.8c-0.3,9.1,0.1,18.2-0.5,27.2c-0.4,6.5-2.3,12.7-9.2,15.8c-2,0.9-3.9,2.1-5.8,3.1c-0.3,0.2-0.7,0.4-1,0.4
	c-1.4-0.1-2.8-0.3-4.2-0.4c0.4-1.3,0.4-2.8,1.1-3.9c1.7-2.6,4-4.9,5.4-7.7c0.9-1.8,1-4.1,1.1-6.2c0.1-1.3-1-2-2.5-1.5
	c-0.3,2-0.7,4.1-1,6.1c-0.3,1.7-0.8,3.3-2.9,3.3c-1.6,0-3-1.4-3-3.6c0-2.7,0.5-5.4,0.8-8.1c0.1-1.3,0.4-2.6,0.4-3.8
	c0.2-4,1.6-7.6,4.3-10.5c2.7-3,2.5-6.4,1.4-9.7c-3.2-9.3-7.1-18.3-9.9-27.7c-2-6.7-2.9-13.8-3.9-20.8c-0.5-3.7-0.3-7.4-0.4-11.1
	c-0.1-4.3-0.4-8.4-1.9-12.6c-1.6-4.5-1.7-9.5-2.4-14.4c-0.1-0.9-0.3-1.8-0.9-2.7c-0.3,2.1-0.9,4.2-0.9,6.3
	c-0.5,13.1-1.2,26.2-1.1,39.3c0,4.9,1.8,9.8,3.1,14.6c2.8,10.1,3.9,20.4,3.6,30.8c-0.7,20.6-1.4,41.3-2.3,61.9
	c-0.6,13.8-2.9,27.5-5.1,41.1c-1.4,8.5-0.9,17.2-0.1,25.7c1.3,13.6,2.7,27.3,1.4,41c-0.5,5.4-1.8,10.9-3.4,16.1
	c-2.5,8.6-5.7,16.9-8,25.5c-1,3.6-0.5,7.6-0.8,11.5c-0.2,1.9-0.3,4-1.1,5.6c-1.5,2.8-1.5,5.4-0.2,8.2c1.8,3.9,3.5,7.8,5,11.8
	c1.6,4.1,0.3,7.1-3.6,9c-3.9,1.9-8,2.6-12.3,2.7c-4.5,0.1-7.7-2.2-8.2-6.7c-0.4-4.2-0.2-8.6,0.3-12.8c0.5-4.5,1.5-8.9,0.8-13.4
	c-0.2-1.5-0.1-3.2,0.5-4.7c2.4-6.6,1.9-13.3,1.3-20.1c-0.9-10.9-1.5-21.9-1.9-32.8c-0.2-4.6,0.7-9.2,0.4-13.7
	c-0.8-9.4-2.1-18.7-3.1-28.1c-0.7-6.7-1.5-13.4-2-20.1c-0.9-14-1.3-28.1-2.4-42.1c-1-12.8-2.5-25.5-5.5-38c-0.1-0.5-0.3-1.1-0.5-1.6
	C155.4,288.4,155.1,288.3,154.8,288.3z"/>
<line class="st0" x1="240.1" y1="527.5" x2="42.1" y2="527.5"/>
<line class="st0" x1="198.9" y1="253.3" x2="0.9" y2="253.3"/>
<line class="st0" x1="198.9" y1="206.7" x2="0.9" y2="206.7"/>
<line class="st0" x1="198.9" y1="136.9" x2="0.9" y2="136.9"/>
<line class="st0" x1="198.9" y1="0.7" x2="0.9" y2="0.7"/>
<line class="st0" x1="41.2" y1="527.5" x2="41.2" y2="0"/>
<g id="numbers">
	<g>
		<rect class="st1" width="40.3" height="22.8"/>
		<g>
			<path d="M20,7.7L20,7.7L18,8.8l-0.3-1.2l2.5-1.4h1.3v11.6H20L20,7.7L20,7.7z"/>
		</g>
	</g>
	<g>
		<rect y="125.4" class="st1" width="40.3" height="22.8"/>
		<g>
			<path d="M16.6,143.3v-1l1.2-1.2c3-2.8,4.3-4.3,4.3-6.1c0-1.2-0.6-2.3-2.3-2.3c-1.1,0-1.9,0.5-2.5,1l-0.5-1.1
				c0.8-0.7,2-1.2,3.3-1.2c2.5,0,3.6,1.7,3.6,3.4c0,2.1-1.6,3.9-4,6.2l-0.9,0.9v0H24v1.3L16.6,143.3L16.6,143.3z"/>
		</g>
	</g>
	<g>
		<rect y="193.5" class="st1" width="40.3" height="22.8"/>
		<g>
			<path d="M17,209.6c0.4,0.3,1.5,0.7,2.6,0.7c2,0,2.7-1.3,2.6-2.3c0-1.6-1.5-2.3-3-2.3h-0.9v-1.2h0.9c1.1,0,2.6-0.6,2.6-2
				c0-0.9-0.6-1.8-2-1.8c-0.9,0-1.8,0.4-2.3,0.8l-0.4-1.1c0.6-0.4,1.8-0.9,3-0.9c2.3,0,3.3,1.4,3.3,2.8c0,1.2-0.7,2.2-2.1,2.7v0
				c1.4,0.3,2.6,1.4,2.6,3c0,1.9-1.5,3.5-4.2,3.5c-1.3,0-2.5-0.4-3-0.8L17,209.6z"/>
		</g>
	</g>
	<g>
		<rect y="241.9" class="st1" width="40.3" height="22.8"/>
		<g>
			<path d="M21.5,259.8v-3.2h-5.4v-1l5.2-7.4H23v7.2h1.6v1.2H23v3.2L21.5,259.8L21.5,259.8z M21.5,255.4v-3.9c0-0.6,0-1.2,0.1-1.8
				h-0.1c-0.4,0.7-0.6,1.2-1,1.7l-2.8,4v0L21.5,255.4L21.5,255.4z"/>
		</g>
	</g>
</g>
</svg>
