<?xml version="1.0" encoding="utf-8"?>
<!-- Generator: Adobe Illustrator 19.2.1, SVG Export Plug-In . SVG Version: 6.00 Build 0)  -->
<svg version="1.1" id="Layer_1" xmlns="http://www.w3.org/2000/svg" xmlns:xlink="http://www.w3.org/1999/xlink" x="0px" y="0px"
	 viewBox="0 0 251.2 534.7" style="enable-background:new 0 0 251.2 534.7;" xml:space="preserve">
<style type="text/css">
	.st0{fill:none;stroke:#000000;stroke-miterlimit:10;}
	.st1{fill:#EFD51F;}
</style>
<line class="st0" x1="243" y1="533.8" x2="42.6" y2="533.8"/>
<line class="st0" x1="188" y1="256.3" x2="0.9" y2="256.3"/>
<line class="st0" x1="176.8" y1="209.2" x2="0.9" y2="209.2"/>
<line class="st0" x1="201.3" y1="138.5" x2="0.9" y2="138.5"/>
<line class="st0" x1="201.3" y1="0.7" x2="0.9" y2="0.7"/>
<line class="st0" x1="41.7" y1="533.8" x2="41.7" y2="0"/>
<g id="numbers_1_">
	<g>
		<rect class="st1" width="40.8" height="23.1"/>
		<g>
			<path d="M20.3,7.8L20.3,7.8l-2.1,1.1l-0.3-1.2l2.6-1.4h1.4v11.8h-1.5V7.8z"/>
		</g>
	</g>
	<g>
		<rect y="126.9" class="st1" width="40.8" height="23.1"/>
		<g>
			<path d="M16.8,145v-1l1.3-1.2c3-2.9,4.4-4.4,4.4-6.2c0-1.2-0.6-2.3-2.3-2.3c-1.1,0-2,0.5-2.5,1l-0.5-1.1c0.8-0.7,2-1.2,3.3-1.2
				c2.5,0,3.6,1.7,3.6,3.4c0,2.2-1.6,3.9-4.1,6.3l-0.9,0.9v0h5.3v1.3L16.8,145L16.8,145z"/>
		</g>
	</g>
	<g>
		<rect y="195.8" class="st1" width="40.8" height="23.1"/>
		<g>
			<path d="M17.2,212.1c0.5,0.3,1.5,0.7,2.6,0.7c2,0,2.7-1.3,2.7-2.3c0-1.6-1.5-2.4-3-2.4h-0.9V207h0.9c1.2,0,2.6-0.6,2.6-2
				c0-0.9-0.6-1.8-2.1-1.8c-0.9,0-1.8,0.4-2.4,0.8l-0.4-1.2c0.6-0.5,1.8-0.9,3.1-0.9c2.3,0,3.4,1.4,3.4,2.8c0,1.2-0.7,2.2-2.2,2.8v0
				c1.4,0.3,2.6,1.4,2.6,3c0,1.9-1.5,3.5-4.3,3.5c-1.3,0-2.5-0.4-3.1-0.8L17.2,212.1z"/>
		</g>
	</g>
	<g>
		<rect y="244.8" class="st1" width="40.8" height="23.1"/>
		<g>
			<path d="M21.7,262.9v-3.2h-5.5v-1.1l5.3-7.5h1.7v7.3h1.6v1.3h-1.6v3.2H21.7z M21.7,258.4v-3.9c0-0.6,0-1.2,0.1-1.8h-0.1
				c-0.4,0.7-0.7,1.2-1,1.7l-2.9,4v0L21.7,258.4L21.7,258.4z"/>
		</g>
	</g>
</g>
<path d="M117.5,143.7c-0.8,3-1.7,6-2.3,9c-1.7,7.7-2.9,15.4-2.7,23.3c0.3,11-2.4,21.5-5.2,32c-2.2,8.2-4.7,16.4-6.4,24.8
	c-1.1,5.4-1.3,11-1.5,16.6c-0.1,3.2,0.9,6.2,2.7,9c1,1.5,1.7,3.4,2,5.2c1,5.2,1.8,10.5,2.6,15.8c0.2,1.2,0.2,3-1.4,3.1
	c-0.9,0-2.3-1.1-2.9-2c-1.4-2.6-2.4-5.4-3.7-8.5c-1.3,2.6-1.2,4.7-0.5,7c1.1,4,3.4,7.3,6.1,10.3c0.2,0.3,0.6,0.5,0.6,0.9
	c0.3,1.2,0.4,2.4,0.6,3.5c-1.2,0.1-2.7,0.6-3.6,0.1c-3.2-1.8-6.2-3.9-9.3-5.8c-4.4-2.7-4.8-7.5-6.2-11.8c-2.6-8-1.6-16-0.7-24.1
	c0.7-6.6,1.2-13.1,1.8-19.7c1.3-13,2.5-26.1,4-39.1c0.7-6,2.3-11.9,3.3-17.9c0.5-3,0.8-6,0.9-9.1c0.3-9.1-0.1-18.2,0.6-27.2
	c0.6-7.5,2.1-15,3.6-22.4c0.8-4.2,2.2-8.2,3.6-12.3c1.3-4,4.3-6.5,8.3-7.6c7.8-2.1,15.7-4,23.5-6c3.8-1,4.3-1.4,4.3-5.4
	c0-1.8,0-3.6,0-5.4c-10.8-1.6-16.2-8.8-18.8-18.6c-3.5-13.3-1-25.8,5.7-37.6c2.4-4.2,5.4-7.9,8.9-11.1c2-1.8,4.3-2.7,7-3
	c2.6-0.3,5.2-0.7,7.6-1.6c4.5-1.7,8.9-1.5,13.4-0.1c9.8,3,17.1,9.1,22.1,18c5.6,9.9,8.7,20.4,6.7,31.8c-1.1,6.2-2.8,12.3-7.9,16.7
	c-3.4,2.9-7.3,4.6-11.8,5.4c0.1,2.8,0.1,5.6,0.5,8.3c0.1,0.7,1.2,1.6,2,1.8c6.3,1.8,12.7,3.5,19,5.2c1.5,0.4,2.9,0.9,4.4,1.1
	c6.3,1,9.8,5.1,11.3,10.9c2,8.1,3.7,16.2,5.5,24.3c0.4,1.8,0.6,3.6,0.7,5.4c0.2,9.9,0.1,19.9,0.5,29.8c0.1,3.7,1.1,7.4,1.7,11.1
	c1.5,9.7,3.2,19.4,4.3,29.2c1.8,16.3,3.2,32.6,4.7,48.9c0.4,4.8,0.8,9.6,0.1,14.3c-0.7,4.8-2.3,9.5-4,14.1c-0.6,1.6-2.4,2.8-3.9,3.9
	c-2.8,2-5.7,3.9-8.8,5.5c-0.9,0.5-2.4,0-3.6-0.1c0.2-1.2,0-2.6,0.6-3.6c1-1.7,2.6-3.1,3.7-4.8c2.3-3.4,3.8-7.1,3.1-11.4
	c-0.1-0.6-0.3-1.1-0.6-2.1c-1.3,3.1-2.3,5.8-3.7,8.4c-0.6,1-1.9,2.3-2.9,2.2c-1.6,0-1.7-1.8-1.5-3.1c1.1-7.9,1.5-16,5.7-23.2
	c2.8-4.8,2.5-10.4,1.5-15.5c-2-10.2-4.5-20.3-7.1-30.4c-3.3-12.3-5.8-24.6-5.8-37.4c0-9.9-2.5-19.5-5.3-28.9
	c-0.1-0.2-0.2-0.3-0.6-0.9c-0.1,1.7-0.3,3-0.3,4.3c-0.3,5.2-0.4,10.4-1.1,15.6c-0.5,3.9-1.5,7.8-2.5,11.6c-1.7,6.3-2,12.8-1.6,19.2
	c0.5,7.1,1,14.3,2.2,21.4c0.9,5.1,2.7,10.1,4.4,15c3.3,9.7,5.2,19.7,5.9,29.9c0.8,10.2,0.6,20.4-0.4,30.6
	c-0.9,8.8-2.2,17.5-3.2,26.3c-0.7,6.3-1.3,12.7-1.8,19c-1,12.5-2.1,25-2.7,37.5c-0.5,10.2-0.3,20.4,1.1,30.6
	c0.9,6.6,1.7,13.2,2.1,19.9c0.5,7.9-0.9,15.7-2.5,23.5c-1.9,9.2-3.6,18.5-5.1,27.8c-0.6,3.6-0.2,7.4-0.6,11
	c-0.3,2.6-1.2,5.2-1.7,7.8c-0.2,1.2-0.4,2.5,0,3.5c1.5,4.7,3.3,9.4,4.9,14.1c1.6,4.8,0.2,8.1-4.5,10c-2.5,1-5.1,1.6-7.8,1.9
	c-5.2,0.6-8.5-2-8.6-7.2c-0.1-5.6,0.6-11.2,0.9-16.9c0.1-2.2,0.4-4.4,0.2-6.5c-0.3-3.4,0.4-6.7,0.9-10.1c0.9-7,1.5-14.1,1.5-21.2
	c0-16.5-0.4-32.9-0.9-49.4c-0.3-7.8-1.3-15.6-1.9-23.4c-0.4-5-0.6-10-1.1-15c-0.3-3.6-1-7.2-1.5-10.7c-1.6-12-3-24-4.7-36
	c-1.5-10.6-3.3-21.2-5.1-31.7c-0.2-1.4-0.2-3.6-2.4-3.6c-2.1,0-2.1,2.2-2.3,3.6c-1.6,9.9-3.2,19.7-4.6,29.6
	c-1.5,10.8-2.1,21.7-4.1,32.3c-2.3,12.5-2.6,25.2-4.3,37.8c-1.5,10.9-1.1,21.8-1.3,32.8c-0.2,10.9-0.7,21.9-0.9,32.8
	c-0.2,8.5-0.4,17.1,2.2,25.4c0.4,1.3,0.3,2.7,0.3,4.1c0.3,5.6,0.8,11.1,0.9,16.7c0.1,4.2-0.2,8.4-0.7,12.5c-0.3,2.5-2.2,4.3-4.9,4.4
	c-4.6,0.2-8.9-0.4-12.9-3c-2.4-1.5-3.2-3.7-2.9-6.3c0.2-1.6,0.7-3.2,1.3-4.8c1.2-3.4,2.6-6.8,3.8-10.2c0.9-2.6,0.7-5-0.4-7.6
	c-0.7-1.5-1.2-3.4-1.1-5c0.6-8.9-1.2-17.6-2.8-26.3c-1.7-9.4-4-18.7-5-28.2c-0.7-6.2,0-12.6,0.8-18.8c1.9-14.4,3.1-28.8,2.1-43.3
	c-0.6-8.7-1-17.4-1.8-26c-1.4-14.1-3-28.2-4.7-42.3c-1.9-15.5-2.7-31-1.1-46.6c0.9-8.4,2.4-16.7,5.5-24.7
	c5.9-15.5,7.6-31.6,6.5-48.1c-0.3-5-1.7-10-3-14.9c-1.9-6.9-2-14-2.5-21.1c-0.1-1-0.2-2-0.3-2.9
	C117.9,143.8,117.7,143.7,117.5,143.7z"/>
</svg>
