<svg id="Layer_1" xmlns="http://www.w3.org/2000/svg" viewBox="0 0 245.6 352"><style>.st1{fill:#efd51f}</style><path d="M153.9 211.7c-.8 4.4-1.4 8.8-2.3 13.1-2.2 10.8-2 21.8-2.6 32.8-.1 2.4-.9 4.7-1 7.1-.2 3.4-.8 7-.1 10.3 2.3 10.2 2.4 20.3.1 30.5-1.3 5.7-.6 11.4.3 17.3.8 4.9 1.5 10.1-.1 15.2-.8 2.4-2.2 3.6-4.8 3.8-3.4.1-6.6-.3-9.6-2.1s-3.3-4.6-.9-7c.4-.5.9-.9 1.4-1.3 2.1-1.6 2.6-3.6 2.8-6.2.3-5-1.6-9.4-3-14-3-9.7-4.5-19.6-4.1-29.7.3-10.7.2-21.4-1.3-32-.9-6.4-2.3-12.7-2.9-19-.9-8.5-1.6-17.1-1.8-25.6-.2-13.6-.3-27.2.4-40.8.7-14.3 2.4-28.5 3.6-42.7.1-.7.1-1.4 0-2.1-.9 4.2-1.8 8.4-2.9 12.5-.4 1.8-1.2 3.5-2 5.1-1.3 2.9-1.7 5.8-2 9-.5 6.2-1.5 12.3-2.7 18.4-1.4 6.9-3.6 13.7-3.6 20.8 0 2.5.6 4.7 2.1 6.7 3.2 4.4 3.7 9.5 3.9 14.7.1 1.3-.5 2.8-2 2.7-.7-.1-1.4-1.6-1.7-2.6-.5-1.4-.6-2.9-1-4.6-2 1.8-2 4.7-.4 7 1.1 1.6 2.5 2.9 3.5 4.5.5.8.5 2 .7 3-1 .1-2.2.5-3.1.1-5.8-2.4-9.8-6.4-10.3-13-.4-5-.9-10-1.2-15-.5-8.3-.9-16.7-1.4-25-.3-6.3.5-12.5 1.8-18.7 1.4-7.3 2.4-14.8 3.1-22.2.7-7 .7-14.1 1.1-21.2.3-5.2 1.6-10.3 5.4-13.9 2.7-2.6 6.3-4.4 9.7-6.2 4.4-2.3 9.1-4.1 13.5-6.6 3.5-1.9 4.1-6.1 1.6-9.2-2.6-3.3-5.3-6.4-6.4-10.6-.1-.2-.2-.6-.4-.6-2.6-.8-2.5-3.1-2.9-5.2-.3-1.4-.3-2.8-.5-4.2-.1-.6.2-1.8-1.2-1.3 0 0-.6-.9-.5-1.4.2-1.2.5-2.5.4-3.5-.5-.7-1.3-1.4-1.3-2.2-.2-2.5 0-4.9 0-7.4 0-1 1.1-2.3-.5-3.2-.2-.1.2-1.6.6-2.3 1.4-2.3 2.9-4.5 4.3-6.7.4-.6.8-1.1 1.2-1.8-.4-.2-.7-.3-1.1-.5 2.4-2 2.8-6.3 7.2-5.7.3 0 .6 0 .8-.2 3-3.4 7.2-2.8 11.2-3.7-.2.5-.3.8-.6 1.6 5.7-1 11.2-2.8 16 .9-.1 0-.6.1-1.5.4 1.2.5 2 1.1 2.8 1.2 4.6.7 7.5 3.8 10.3 7 1.2 1.4 1.7 3.5 2.2 5.4.6 2.7 1 5.4 1.3 8.1.1.8-.4 1.7-.4 2.6 0 2.3.2 4.5.3 6.9-.5-.2-1-.4-1.6-.7.3 2 .6 3.8.9 5.6-.2 0-.3-.1-.5-.1-.4.7-1.2 1.4-1.2 2.2-.3 3-.4 6-3.4 7.8-.3.2-.3.7-.4 1.1-.9 3.6-2.6 6.6-5.2 9.3-3.3 3.6-4.1 8.5 1.6 11.3 4.7 2.2 9.4 4.6 14.2 6.6 8.8 3.7 12.6 10.5 13.2 19.7.7 11.5 1.3 23 2.4 34.5.5 4.9 2.3 9.6 2.8 14.5.6 5.2.5 10.6.4 15.9-.2 7.8-.7 15.5-1.2 23.3-.3 5.1-.6 10.3-1.3 15.4-.9 6-5.3 9.3-10.6 11.4-.7.3-1.8-.3-2.7-.5.2-.8.1-1.8.6-2.5 1-1.5 2.5-2.8 3.3-4.4.9-1.6 1.3-3.5 1.7-5.3.1-.5-.7-1.2-1-1.9-.4.6-1 1.1-1.2 1.8-.3 1.1-.2 2.4-.6 3.5-.2.7-1 1.1-1.6 1.7-.6-.6-1.5-1.1-1.7-1.8-.3-.9-.2-2-.1-2.9.4-4.7 1.1-9.3 4.1-13.2 3-3.9 2.1-8.4 1.3-12.7-1.4-7.1-3.2-14-4.5-21.1-.8-4.1-.7-8.4-1.3-12.6-.3-2.6-1-5.2-1.8-7.8-1.7-5.7-3.5-11.3-4.9-16 .2 2.2.6 5.4.9 8.7.8 9.9 1.9 19.7 2.3 29.6.6 14.7.8 29.4.9 44.1.1 14.7-2 29.2-4.4 43.7-1.3 7.8-1.4 15.8-1.8 23.7-.2 4.9 0 9.8 0 14.7 0 10.8-2.6 21.1-5.9 31.3-1.1 3.4-.8 7.4-.9 11.1 0 .8.9 1.7 1.5 2.5.8.9 1.9 1.7 2.8 2.6 1.8 1.9 1.5 4.8-.7 6.2-3.6 2.4-7.6 3-11.8 2.2-2.2-.5-3.3-2.4-3.4-4.4-.1-5.1-.4-10.4.3-15.4.9-5.7 1.1-11.3-.1-16.9-2.1-9.6-2.2-19.1.2-28.6 1-4.1.6-8.2-.1-12.4-.8-5-1.3-10.1-1.3-15.2-.1-12.1-1.9-24-4.5-35.7-.1-.4-.3-.8-.4-1.1-.3-.3-.5-.3-.8-.3z"/><path d="M237.3 351.3H41.6m142-154.1H.9m171.8-26.5H.9m195.7-49.6H.9M196.6.7H.9m39.8 350.6V.7" fill="none" stroke="#000" stroke-miterlimit="10"/><g id="numbers_2_"><path class="st1" d="M0 0h39.8v22.6H0z"/><path d="M19.8 7.6l-2 1.1-.3-1.2L20 6.2h1.3v11.5h-1.5V7.6z"/><path class="st1" d="M0 109.8h39.8v22.6H0z"/><path d="M16.4 127.5v-1l1.2-1.2c2.9-2.8 4.3-4.3 4.3-6 0-1.2-.6-2.2-2.3-2.2-1 0-1.9.5-2.4 1l-.5-1.1c.8-.7 1.9-1.2 3.3-1.2 2.5 0 3.5 1.7 3.5 3.3 0 2.1-1.5 3.8-4 6.2l-.9.8h5.2v1.3l-7.4.1z"/><path class="st1" d="M0 157.6h39.8v22.6H0z"/><path d="M16.8 173.5c.4.3 1.5.7 2.5.7 2 0 2.6-1.3 2.6-2.2 0-1.6-1.5-2.3-3-2.3H18v-1.2h.9c1.1 0 2.6-.6 2.6-1.9 0-.9-.6-1.7-2-1.7-.9 0-1.8.4-2.3.8l-.4-1.1c.6-.4 1.8-.9 3-.9 2.3 0 3.3 1.3 3.3 2.7 0 1.2-.7 2.2-2.1 2.7 1.4.3 2.6 1.3 2.6 3 0 1.8-1.4 3.5-4.2 3.5-1.3 0-2.4-.4-3-.8l.4-1.3z"/><path class="st1" d="M0 184.2h39.8v22.6H0z"/><path d="M21.2 201.8v-3.1h-5.3v-1l5.1-7.3h1.7v7.2h1.6v1.2h-1.6v3.1l-1.5-.1zm0-4.3v-3.8c0-.6 0-1.2.1-1.8h-.1c-.4.7-.6 1.2-1 1.7l-2.8 3.9h3.8z"/></g></svg>