<svg id="Layer_1" xmlns="http://www.w3.org/2000/svg" viewBox="0 0 254.4 528.8"><style>.st1{fill:#efd51f}</style><path d="M154.8 288.3c-.5 2.7-1.2 5.3-1.6 8-2.8 17.1-3.8 34.4-5 51.7-.7 9.8-.7 19.6-1.5 29.4-.7 8.3-2.3 16.4-3.1 24.7-.7 6.7-1.6 13.4-1.3 20.1.5 13.9.1 27.6-1.4 41.4-.6 5.5-1.8 11-.1 16.4 1.5 4.9 1.7 9.9 1.5 15-.1 4 1.3 8.1 1.5 12.1.2 3.6-.1 7.3-.7 10.8-.6 3-2.9 4.7-6.1 4.8-4.9.1-9.7-.3-14.2-2.7-3.9-2.1-4.9-4.9-3.3-8.9 1.5-3.7 3.2-7.4 4.8-11 1.4-3.1 1.5-6.1-.1-9.2-.8-1.6-1.3-3.6-1-5.4.8-5.4-.5-10.5-2.1-15.6-3-9.5-6.1-18.9-8.9-28.4-1-3.5-1.4-7.3-1.6-11-.6-13.8.3-27.6 1.8-41.4 1-9.7.7-19.4-1.5-29-2.8-12.2-4.1-24.7-4.6-37.2-.7-20.6-1.2-41.1-1.9-61.7-.4-12.4 2.2-24.3 5.3-36.2.9-3.5 1.6-7.2 1.5-10.8-.2-12.5-.7-24.9-1.2-37.4-.1-1.9-.6-3.8-1.4-5.7-.5 4-.9 7.9-1.6 11.9-.4 2.5-1.4 4.9-1.9 7.4-.5 2.1-.9 4.2-1 6.3-.2 3.4.1 6.9-.1 10.3-.4 8.2-1.6 16.2-4.2 24-3.3 10-6.9 20-10.2 30-.9 2.9-1.4 6 .9 8.6 3.1 3.6 4.7 7.7 5 12.5.2 2.9.7 5.8 1 8.7.1.8 0 1.7-.1 2.6-.2 1.6-1 2.9-2.8 2.9-1.9 0-2.6-1.3-3-2.9-.3-1.6-.3-3.3-.6-4.9-.1-.7-.6-1.3-1-1.9-.6.6-1.7 1-1.8 1.7-.7 2.6.1 5.1 1.6 7.3 1.6 2.4 3.6 4.5 5.1 6.9.6.9.6 2.3.9 3.5-1.3.2-2.8.9-3.8.4-4-1.9-7.8-4.1-11.6-6.4-.9-.6-1.6-1.9-2.1-2.9-.9-2.2-1.9-4.4-2.3-6.7-.4-2-.2-4.2-.3-6.3-.2-5.9-.5-11.9-.6-17.8-.4-16.2-1-32.4-1-48.5 0-5.8 1.6-11.6 2.6-17.3.8-4.3 2.1-8.5 2.9-12.8.7-3.6 1-7.4 1.2-11 .5-8.4.7-16.9 1.3-25.3.2-3.2 1.5-6.4 2.1-9.6.5-3.1.9-6.3 1.1-9.5.4-5.4.1-10.8.9-16.1 1.4-9.6 7.8-15 16.6-18.1 10.3-3.6 20.5-7.2 30.8-10.7 2.4-.8 3.6-2.3 4.2-4.6.3-1.5.6-2.9.9-4.4.5-2.4.3-4.3-1.5-6.4-1.5-1.8-1.7-4.7-2.5-7.2-.2-.5-.3-1.4-.6-1.4-2.1-.4-2-2.1-2.6-3.5-1-2.5-2.4-4.9-3.3-7.4-1.1-3.1-.5-6.2.1-9.5.8.4 1.4.7 2 .9 0-.2.1-.4.1-.6-1.4-6.3-1.6-12.6-.4-19 .7-3.9 3.6-6.4 6.2-9.1 8.4-8.9 18.7-9.4 29.7-7 4.8 1 8 4.4 11.5 7.5 7.8 6.7 6.6 15.5 5.8 24.3 0 .4-.2.7-.2 1-.1.8-.2 1.7-.3 2.7.7-.2 1.3-.4 2.2-.8.6 4 1.2 7.9-.7 11.6-1.1 2.1-2 4.4-3.1 6.6-.4.8-1.3 1.4-1.9 2.1-.3.4-.7.8-.8 1.3-.4 1.6-.6 3.2-1.1 4.8-.4 1.1-.9 2.3-1.7 3.1-1.3 1.3-1.8 2.6-1.4 4.4.5 2.4.7 4.8 1.6 7.1.5 1.2 1.8 2.6 3 3 7.9 2.8 15.9 5.3 23.7 8.1 4.6 1.7 9.2 3.5 13.6 5.7 7.1 3.6 10.3 9.9 11.1 17.5.4 3.9.7 7.9.6 11.8-.2 5.4.7 10.5 2 15.6 1.2 4.5 1.4 9.3 1.7 14 .4 6.2.1 12.5.8 18.7.7 6.2 2.1 12.4 3.3 18.5 1.9 9.3 4 18.6 3.6 28.2-.5 11.6-1 23.2-1.3 34.8-.3 9.1.1 18.2-.5 27.2-.4 6.5-2.3 12.7-9.2 15.8-2 .9-3.9 2.1-5.8 3.1-.3.2-.7.4-1 .4-1.4-.1-2.8-.3-4.2-.4.4-1.3.4-2.8 1.1-3.9 1.7-2.6 4-4.9 5.4-7.7.9-1.8 1-4.1 1.1-6.2.1-1.3-1-2-2.5-1.5-.3 2-.7 4.1-1 6.1-.3 1.7-.8 3.3-2.9 3.3-1.6 0-3-1.4-3-3.6 0-2.7.5-5.4.8-8.1.1-1.3.4-2.6.4-3.8.2-4 1.6-7.6 4.3-10.5 2.7-3 2.5-6.4 1.4-9.7-3.2-9.3-7.1-18.3-9.9-27.7-2-6.7-2.9-13.8-3.9-20.8-.5-3.7-.3-7.4-.4-11.1-.1-4.3-.4-8.4-1.9-12.6-1.6-4.5-1.7-9.5-2.4-14.4-.1-.9-.3-1.8-.9-2.7-.3 2.1-.9 4.2-.9 6.3-.5 13.1-1.2 26.2-1.1 39.3 0 4.9 1.8 9.8 3.1 14.6 2.8 10.1 3.9 20.4 3.6 30.8-.7 20.6-1.4 41.3-2.3 61.9-.6 13.8-2.9 27.5-5.1 41.1-1.4 8.5-.9 17.2-.1 25.7 1.3 13.6 2.7 27.3 1.4 41-.5 5.4-1.8 10.9-3.4 16.1-2.5 8.6-5.7 16.9-8 25.5-1 3.6-.5 7.6-.8 11.5-.2 1.9-.3 4-1.1 5.6-1.5 2.8-1.5 5.4-.2 8.2 1.8 3.9 3.5 7.8 5 11.8 1.6 4.1.3 7.1-3.6 9-3.9 1.9-8 2.6-12.3 2.7-4.5.1-7.7-2.2-8.2-6.7-.4-4.2-.2-8.6.3-12.8.5-4.5 1.5-8.9.8-13.4-.2-1.5-.1-3.2.5-4.7 2.4-6.6 1.9-13.3 1.3-20.1-.9-10.9-1.5-21.9-1.9-32.8-.2-4.6.7-9.2.4-13.7-.8-9.4-2.1-18.7-3.1-28.1-.7-6.7-1.5-13.4-2-20.1-.9-14-1.3-28.1-2.4-42.1-1-12.8-2.5-25.5-5.5-38-.1-.5-.3-1.1-.5-1.6-.4.4-.7.3-1 .3z"/><path d="M240.1 527.5h-198m156.8-274.2H.9m198-46.6H.9m198-69.8H.9M198.9.7H.9m40.3 526.8V0" fill="none" stroke="#000" stroke-miterlimit="10"/><g id="numbers"><path class="st1" d="M0 0h40.3v22.8H0z"/><path d="M20 7.7l-2 1.1-.3-1.2 2.5-1.4h1.3v11.6H20V7.7z"/><path class="st1" d="M0 125.4h40.3v22.8H0z"/><path d="M16.6 143.3v-1l1.2-1.2c3-2.8 4.3-4.3 4.3-6.1 0-1.2-.6-2.3-2.3-2.3-1.1 0-1.9.5-2.5 1l-.5-1.1c.8-.7 2-1.2 3.3-1.2 2.5 0 3.6 1.7 3.6 3.4 0 2.1-1.6 3.9-4 6.2l-.9.9H24v1.3l-7.4.1z"/><path class="st1" d="M0 193.5h40.3v22.8H0z"/><path d="M17 209.6c.4.3 1.5.7 2.6.7 2 0 2.7-1.3 2.6-2.3 0-1.6-1.5-2.3-3-2.3h-.9v-1.2h.9c1.1 0 2.6-.6 2.6-2 0-.9-.6-1.8-2-1.8-.9 0-1.8.4-2.3.8l-.4-1.1c.6-.4 1.8-.9 3-.9 2.3 0 3.3 1.4 3.3 2.8 0 1.2-.7 2.2-2.1 2.7 1.4.3 2.6 1.4 2.6 3 0 1.9-1.5 3.5-4.2 3.5-1.3 0-2.5-.4-3-.8l.3-1.1z"/><path class="st1" d="M0 241.9h40.3v22.8H0z"/><path d="M21.5 259.8v-3.2h-5.4v-1l5.2-7.4H23v7.2h1.6v1.2H23v3.2h-1.5zm0-4.4v-3.9c0-.6 0-1.2.1-1.8h-.1c-.4.7-.6 1.2-1 1.7l-2.8 4h3.8z"/></g></svg>