<svg id="Layer_1" xmlns="http://www.w3.org/2000/svg" viewBox="0 0 251.2 534.7"><style>.st1{fill:#efd51f}</style><path d="M243 533.8H42.6M188 256.3H.9m175.9-47.1H.9m200.4-70.7H.9M201.3.7H.9m40.8 533.1V0" fill="none" stroke="#000" stroke-miterlimit="10"/><g id="numbers_1_"><path class="st1" d="M0 0h40.8v23.1H0z"/><path d="M20.3 7.8l-2.1 1.1-.3-1.2 2.6-1.4h1.4v11.8h-1.5V7.8z"/><path class="st1" d="M0 126.9h40.8V150H0z"/><path d="M16.8 145v-1l1.3-1.2c3-2.9 4.4-4.4 4.4-6.2 0-1.2-.6-2.3-2.3-2.3-1.1 0-2 .5-2.5 1l-.5-1.1c.8-.7 2-1.2 3.3-1.2 2.5 0 3.6 1.7 3.6 3.4 0 2.2-1.6 3.9-4.1 6.3l-.9.9h5.3v1.3l-7.6.1z"/><path class="st1" d="M0 195.8h40.8v23.1H0z"/><path d="M17.2 212.1c.5.3 1.5.7 2.6.7 2 0 2.7-1.3 2.7-2.3 0-1.6-1.5-2.4-3-2.4h-.9V207h.9c1.2 0 2.6-.6 2.6-2 0-.9-.6-1.8-2.1-1.8-.9 0-1.8.4-2.4.8l-.4-1.2c.6-.5 1.8-.9 3.1-.9 2.3 0 3.4 1.4 3.4 2.8 0 1.2-.7 2.2-2.2 2.8 1.4.3 2.6 1.4 2.6 3 0 1.9-1.5 3.5-4.3 3.5-1.3 0-2.5-.4-3.1-.8l.5-1.1z"/><path class="st1" d="M0 244.8h40.8v23.1H0z"/><path d="M21.7 262.9v-3.2h-5.5v-1.1l5.3-7.5h1.7v7.3h1.6v1.3h-1.6v3.2h-1.5zm0-4.5v-3.9c0-.6 0-1.2.1-1.8h-.1c-.4.7-.7 1.2-1 1.7l-2.9 4h3.9z"/></g><path d="M117.5 143.7c-.8 3-1.7 6-2.3 9-1.7 7.7-2.9 15.4-2.7 23.3.3 11-2.4 21.5-5.2 32-2.2 8.2-4.7 16.4-6.4 24.8-1.1 5.4-1.3 11-1.5 16.6-.1 3.2.9 6.2 2.7 9 1 1.5 1.7 3.4 2 5.2 1 5.2 1.8 10.5 2.6 15.8.2 1.2.2 3-1.4 3.1-.9 0-2.3-1.1-2.9-2-1.4-2.6-2.4-5.4-3.7-8.5-1.3 2.6-1.2 4.7-.5 7 1.1 4 3.4 7.3 6.1 10.3.2.3.6.5.6.9.3 1.2.4 2.4.6 3.5-1.2.1-2.7.6-3.6.1-3.2-1.8-6.2-3.9-9.3-5.8-4.4-2.7-4.8-7.5-6.2-11.8-2.6-8-1.6-16-.7-24.1.7-6.6 1.2-13.1 1.8-19.7 1.3-13 2.5-26.1 4-39.1.7-6 2.3-11.9 3.3-17.9.5-3 .8-6 .9-9.1.3-9.1-.1-18.2.6-27.2.6-7.5 2.1-15 3.6-22.4.8-4.2 2.2-8.2 3.6-12.3 1.3-4 4.3-6.5 8.3-7.6 7.8-2.1 15.7-4 23.5-6 3.8-1 4.3-1.4 4.3-5.4V80c-10.8-1.6-16.2-8.8-18.8-18.6-3.5-13.3-1-25.8 5.7-37.6 2.4-4.2 5.4-7.9 8.9-11.1 2-1.8 4.3-2.7 7-3 2.6-.3 5.2-.7 7.6-1.6 4.5-1.7 8.9-1.5 13.4-.1 9.8 3 17.1 9.1 22.1 18 5.6 9.9 8.7 20.4 6.7 31.8-1.1 6.2-2.8 12.3-7.9 16.7-3.4 2.9-7.3 4.6-11.8 5.4.1 2.8.1 5.6.5 8.3.1.7 1.2 1.6 2 1.8 6.3 1.8 12.7 3.5 19 5.2 1.5.4 2.9.9 4.4 1.1 6.3 1 9.8 5.1 11.3 10.9 2 8.1 3.7 16.2 5.5 24.3.4 1.8.6 3.6.7 5.4.2 9.9.1 19.9.5 29.8.1 3.7 1.1 7.4 1.7 11.1 1.5 9.7 3.2 19.4 4.3 29.2 1.8 16.3 3.2 32.6 4.7 48.9.4 4.8.8 9.6.1 14.3-.7 4.8-2.3 9.5-4 14.1-.6 1.6-2.4 2.8-3.9 3.9-2.8 2-5.7 3.9-8.8 5.5-.9.5-2.4 0-3.6-.1.2-1.2 0-2.6.6-3.6 1-1.7 2.6-3.1 3.7-4.8 2.3-3.4 3.8-7.1 3.1-11.4-.1-.6-.3-1.1-.6-2.1-1.3 3.1-2.3 5.8-3.7 8.4-.6 1-1.9 2.3-2.9 2.2-1.6 0-1.7-1.8-1.5-3.1 1.1-7.9 1.5-16 5.7-23.2 2.8-4.8 2.5-10.4 1.5-15.5-2-10.2-4.5-20.3-7.1-30.4-3.3-12.3-5.8-24.6-5.8-37.4 0-9.9-2.5-19.5-5.3-28.9-.1-.2-.2-.3-.6-.9-.1 1.7-.3 3-.3 4.3-.3 5.2-.4 10.4-1.1 15.6-.5 3.9-1.5 7.8-2.5 11.6-1.7 6.3-2 12.8-1.6 19.2.5 7.1 1 14.3 2.2 21.4.9 5.1 2.7 10.1 4.4 15 3.3 9.7 5.2 19.7 5.9 29.9.8 10.2.6 20.4-.4 30.6-.9 8.8-2.2 17.5-3.2 26.3-.7 6.3-1.3 12.7-1.8 19-1 12.5-2.1 25-2.7 37.5-.5 10.2-.3 20.4 1.1 30.6.9 6.6 1.7 13.2 2.1 19.9.5 7.9-.9 15.7-2.5 23.5-1.9 9.2-3.6 18.5-5.1 27.8-.6 3.6-.2 7.4-.6 11-.3 2.6-1.2 5.2-1.7 7.8-.2 1.2-.4 2.5 0 3.5 1.5 4.7 3.3 9.4 4.9 14.1 1.6 4.8.2 8.1-4.5 10-2.5 1-5.1 1.6-7.8 1.9-5.2.6-8.5-2-8.6-7.2-.1-5.6.6-11.2.9-16.9.1-2.2.4-4.4.2-6.5-.3-3.4.4-6.7.9-10.1.9-7 1.5-14.1 1.5-21.2 0-16.5-.4-32.9-.9-49.4-.3-7.8-1.3-15.6-1.9-23.4-.4-5-.6-10-1.1-15-.3-3.6-1-7.2-1.5-10.7-1.6-12-3-24-4.7-36-1.5-10.6-3.3-21.2-5.1-31.7-.2-1.4-.2-3.6-2.4-3.6-2.1 0-2.1 2.2-2.3 3.6-1.6 9.9-3.2 19.7-4.6 29.6-1.5 10.8-2.1 21.7-4.1 32.3-2.3 12.5-2.6 25.2-4.3 37.8-1.5 10.9-1.1 21.8-1.3 32.8-.2 10.9-.7 21.9-.9 32.8-.2 8.5-.4 17.1 2.2 25.4.4 1.3.3 2.7.3 4.1.3 5.6.8 11.1.9 16.7.1 4.2-.2 8.4-.7 12.5-.3 2.5-2.2 4.3-4.9 4.4-4.6.2-8.9-.4-12.9-3-2.4-1.5-3.2-3.7-2.9-6.3.2-1.6.7-3.2 1.3-4.8 1.2-3.4 2.6-6.8 3.8-10.2.9-2.6.7-5-.4-7.6-.7-1.5-1.2-3.4-1.1-5 .6-8.9-1.2-17.6-2.8-26.3-1.7-9.4-4-18.7-5-28.2-.7-6.2 0-12.6.8-18.8 1.9-14.4 3.1-28.8 2.1-43.3-.6-8.7-1-17.4-1.8-26-1.4-14.1-3-28.2-4.7-42.3-1.9-15.5-2.7-31-1.1-46.6.9-8.4 2.4-16.7 5.5-24.7 5.9-15.5 7.6-31.6 6.5-48.1-.3-5-1.7-10-3-14.9-1.9-6.9-2-14-2.5-21.1-.1-1-.2-2-.3-2.9 0 .2-.2.1-.4.1z"/></svg>