<svg xmlns="http://www.w3.org/2000/svg" viewBox="0 0 60 60" width="512" height="512"><path d="M45 23h-1V5c0-2.757-2.243-5-5-5s-5 2.243-5 5v7.026A4.948 4.948 0 0 0 31 11c-1.44 0-2.729.621-3.642 1.598C26.505 11.057 24.882 10 23 10c-2.449 0-4.483 1.773-4.909 4.101A4.947 4.947 0 0 0 15 13c-2.757 0-5 2.243-5 5v36h10v6h14v-6h10V33h1c2.757 0 5-2.243 5-5s-2.243-5-5-5zm-9-7V5c0-1.654 1.346-3 3-3s3 1.346 3 3v18h-6v-7zm-8 10V16c0-1.654 1.346-3 3-3s3 1.346 3 3v7c-2.757 0-5 2.243-5 5a4.85 4.85 0 0 0 .162 1.198c.016.063.024.128.043.19-.084-.064-.16-.138-.238-.211-.053-.049-.108-.095-.157-.148a3.052 3.052 0 0 1-.244-.31c-.029-.04-.056-.082-.083-.124a3.029 3.029 0 0 1-.373-.849l-.038-.146A2.957 2.957 0 0 1 28 27v-1zm-8-8v-3c0-1.654 1.346-3 3-3s3 1.346 3 3v11c0 .471-.119.911-.313 1.307l-.11.188a3.07 3.07 0 0 1-1.097 1.098l-.008.004c-.2.117-.416.202-.638.269-.037.011-.072.025-.109.034-.235.063-.478.1-.725.1s-.49-.037-.725-.099c-.037-.009-.073-.023-.109-.034a3 3 0 0 1-.637-.269l-.008-.005a3.07 3.07 0 0 1-1.097-1.098l-.109-.187A2.94 2.94 0 0 1 20 26v-8zm-8 0c0-1.654 1.346-3 3-3s3 1.346 3 3v11c0 1.654-1.346 3-3 3s-3-1.346-3-3V18zm20 40H22v-4h10v4zm10-6H12v-2h30v2zm0-4H12V32.998c.039.03.084.051.124.079.081.057.166.107.251.159a4.887 4.887 0 0 0 1.418.599c.094.023.184.052.28.07.301.058.609.095.927.095.327 0 .645-.036.954-.096.103-.02.198-.056.299-.082.203-.053.403-.108.595-.185.112-.045.215-.101.323-.153.169-.082.335-.168.494-.268.105-.067.204-.14.303-.214a5.116 5.116 0 0 0 .684-.609c.124-.133.237-.274.346-.42.074-.099.147-.196.214-.301.102-.16.188-.327.271-.499.051-.105.108-.207.152-.317.08-.198.137-.405.191-.614.024-.094.059-.183.078-.279.003-.017.011-.033.014-.05.015.012.033.02.048.032a4.785 4.785 0 0 0 .775.489c.17.087.34.168.52.235.131.05.266.086.4.125.143.04.283.086.431.114.297.057.6.092.908.092a4.97 4.97 0 0 0 3.637-1.591c.019.034.043.064.062.098.087.149.175.295.277.434.075.103.16.197.243.294a5.089 5.089 0 0 0 1.745 1.322c.074.033.15.062.226.092a4.97 4.97 0 0 0 .925.262c.29.052.583.089.885.089h.031c.178.133.368.247.563.356.069.039.137.077.207.113a4.837 4.837 0 0 0 .909.342c.133.036.262.075.399.1.294.054.59.089.891.089h8v15zm3-17H34a2.941 2.941 0 0 1-1.05-.2h-.001a3.083 3.083 0 0 1-.929-.573l-.008-.007a3.004 3.004 0 0 1-.942-1.586l-.004-.013A3.004 3.004 0 0 1 34 25h11c1.654 0 3 1.346 3 3s-1.346 3-3 3z"/><path d="M21.301 35.282a1.142 1.142 0 0 0-1.243.245l-3.765 3.766a.999.999 0 1 0 1.414 1.414L20 38.414V45a1 1 0 1 0 2 0v-8.668c0-.46-.274-.872-.699-1.05z"/></svg>