<?xml version="1.0" encoding="utf-8"?>
<!-- Generator: Adobe Illustrator 17.0.1, SVG Export Plug-In . SVG Version: 6.00 Build 0)  -->
<!DOCTYPE svg PUBLIC "-//W3C//DTD SVG 1.1//EN" "http://www.w3.org/Graphics/SVG/1.1/DTD/svg11.dtd">
<svg version="1.1" id="Capa_1" xmlns="http://www.w3.org/2000/svg" xmlns:xlink="http://www.w3.org/1999/xlink" x="0px" y="0px"
	 width="474px" height="396px" viewBox="15.5 54.5 474 396" enable-background="new 15.5 54.5 474 396" xml:space="preserve">
<g>
	<path fill="#EFD520" d="M373.891,301.912c16.723-9.172,28.208-26.727,28.208-47.099c0-29.729-24.198-53.91-53.927-53.91
		c-10.455,0-20.143,3.125-28.421,8.295c-4.957,19.732-12.762,38.606-22.972,55C325.721,269.638,352.277,282.818,373.891,301.912z"/>
	<path fill="#EFD520" d="M485.478,234.412c0-6.226-5.056-11.266-11.258-11.266h-23.134c-1.998-6.521-4.647-12.771-7.789-18.701
		l16.377-16.377c2.128-2.111,3.305-4.974,3.305-7.96c0-2.987-1.178-5.851-3.305-7.968l-28.83-28.838
		c-2.191-2.202-5.088-3.306-7.966-3.306c-2.881,0-5.76,1.104-7.951,3.306l-16.411,16.386c-5.924-3.142-12.157-5.775-18.702-7.764
		v-23.135c0-6.217-5.024-11.258-11.241-11.258h-40.789c-2.733,0-5.138,1.096-7.1,2.716c3.435,12.533,5.316,26.122,5.316,40.618
		c0,9.203-0.719,18.548-2.061,27.839c7.591-2.798,15.673-4.556,24.232-4.556c38.973,0,70.682,31.702,70.682,70.665
		c0,24.904-13.007,46.73-32.527,59.321c14.202,15.576,25.492,34.056,32.838,54.762c1.21,0.417,2.47,0.721,3.73,0.721
		c2.879,0,5.76-1.096,7.968-3.298l28.846-28.838c2.111-2.111,3.272-4.974,3.272-7.96s-1.161-5.849-3.272-7.968l-16.411-16.386
		c3.142-5.922,5.792-12.174,7.789-18.701h23.134c2.977,0,5.874-1.178,7.968-3.306c2.111-2.103,3.306-4.973,3.306-7.96
		L485.478,234.412z"/>
	<path fill="#21212B" d="M396.192,379.09c-17.492-51.466-63.712-86.864-117.068-91.682c-17.867,18.92-39.988,30.924-65.04,30.924
		c-25.032,0-47.171-12.003-65.021-30.924c-53.388,4.818-99.61,40.216-117.102,91.69l-9.669,28.461
		c-2.766,8.19-1.441,17.214,3.599,24.24C30.931,438.828,39.047,443,47.686,443h332.782c8.655,0,16.771-4.172,21.812-11.201
		c5.022-7.026,6.365-16.051,3.582-24.24L396.192,379.09z"/>
	<path fill="#21212B" d="M127.319,160.865c0,63.836,38.86,132.335,86.766,132.335c47.925,0,86.783-68.499,86.783-132.335
		C300.868,28.539,127.319,28.277,127.319,160.865z"/>
</g>
</svg>
