<?xml version="1.0" encoding="iso-8859-1"?>
<!-- Generator: Adobe Illustrator 19.0.0, SVG Export Plug-In . SVG Version: 6.00 Build 0)  -->
<svg xmlns="http://www.w3.org/2000/svg" xmlns:xlink="http://www.w3.org/1999/xlink" version="1.1" id="Capa_1" x="0px" y="0px" viewBox="0 0 512.097 512.097" style="enable-background:new 0 0 512.097 512.097;" xml:space="preserve" width="512px" height="512px">
<g transform="translate(-1)">
	<g>
		<g>
			<path d="M510.013,382.284l-95.587-79.26c-1.767-17.203-14.676-114.905-83.988-173.727     c-30.891-25.901-69.413-40.973-109.679-42.914C213.455,68.9,195.626,58.2,176.762,59.98     c-18.865,1.78-34.378,15.624-38.283,34.166c-2.546,0.681-4.933,1.559-7.413,2.321c-0.157,0.058-0.316,0.08-0.469,0.147     c-33.712,9.758-63.56,29.749-85.416,57.209c-58.242,74.233-42.4,180.738-41.7,185.233c0.458,2.924,2.397,5.402,5.125,6.55     c2.728,1.154,5.86,0.805,8.267-0.921c7.446-4.525,16.004-6.887,24.717-6.821c9.152,0.49,18.008,3.412,25.655,8.465     c0.237,0.805,0.595,1.57,1.061,2.268c3.267,4.412,77.525,103.717,142.55,103.713c2.9,0.003,5.796-0.202,8.667-0.613     c24.875-3.604,51.992-15.212,80.7-27.504c45.233-19.362,96.533-41.313,149.242-35.992l53.675,9.067     c3.813,0.676,7.597-1.326,9.183-4.858C513.928,388.901,512.981,384.75,510.013,382.284z M396.38,296.759     c-7.648-0.625-19.05-1.429-32.997-2.041l-1.119-8.409c-0.025-0.25-0.067-0.5-0.108-0.746     c-1.921-10.053-17.416-89.282-38.148-139.002C376.616,194.719,392.334,269.716,396.38,296.759z M180.722,76.855     c7.632-0.012,14.901,3.261,19.949,8.986c-6.2,0.094-12.461,0.308-18.882,0.856c-8.197,0.701-16.078,1.803-23.754,3.161     C162.748,81.799,171.386,76.849,180.722,76.855z M119.364,158.409c1.939-16.987,8.637-33.08,19.32-46.428     c14.537-4.242,29.464-7.015,44.555-8.276c37.749-4.349,75.933,2.757,109.591,20.395c0.041,0.064,0.042,0.139,0.084,0.202     c2.492,3.692,4.808,7.429,6.883,11.138c24.3,43,44.625,148.242,45.583,153.283c0.05,0.446,0.117,0.975,0.2,1.587l0.505,3.811     c-34.003-1.03-68.036,0.177-101.88,3.614c-39.218,4.734-78.119,11.8-116.496,21.163     C124.684,298.232,111.669,203.803,119.364,158.409z M41.589,320.797c-7.662,0.008-15.265,1.351-22.467,3.967     c-2.258-28.971-3.425-105.783,39.55-160.483c14.382-18.232,32.859-32.819,53.931-42.579     c-4.827,10.796-8.214,22.179-10.072,33.858c-8.422,49.742,5.837,149.52,8.518,167.402c-16.218,4.065-28.49,7.451-34.385,9.119     C66.213,325.204,54.088,321.304,41.589,320.797z M451.747,371.297c-57.733-5.837-111.117,17.029-158.242,37.208     c-27.65,11.838-53.767,23.017-76.433,26.3c-43.281,6.306-102.606-55.519-128.758-88.252     c51.743-14.411,104.461-25.056,157.742-31.853c51.626-4.894,103.593-5.022,155.243-0.383l73.39,60.846L451.747,371.297z" fill="#21212a"/>
			<path d="M244.572,264.589c35.258,0,63.942-24.883,63.942-55.467c0-30.583-28.683-55.467-63.942-55.467     s-63.942,24.883-63.942,55.467C180.63,239.705,209.314,264.589,244.572,264.589z M244.572,170.722     c25.85,0,46.875,17.225,46.875,38.4s-21.025,38.4-46.875,38.4s-46.875-17.225-46.875-38.4S218.722,170.722,244.572,170.722z" fill="#21212a"/>
		</g>
	</g>
</g>
<g>
</g>
<g>
</g>
<g>
</g>
<g>
</g>
<g>
</g>
<g>
</g>
<g>
</g>
<g>
</g>
<g>
</g>
<g>
</g>
<g>
</g>
<g>
</g>
<g>
</g>
<g>
</g>
<g>
</g>
</svg>
