<?xml version="1.0" encoding="iso-8859-1"?>
<!-- Generator: Adobe Illustrator 19.0.0, SVG Export Plug-In . SVG Version: 6.00 Build 0)  -->
<svg xmlns="http://www.w3.org/2000/svg" xmlns:xlink="http://www.w3.org/1999/xlink" version="1.1" id="Capa_1" x="0px" y="0px" viewBox="0 0 512 512" style="enable-background:new 0 0 512 512;" xml:space="preserve" width="512px" height="512px">
<g>
	<g>
		<path d="M508.814,251.791c-15.671-24.93-20.075-31.936-20.767-33.037c0.688,1.094,4.297,6.836-1.959-3.117    c-19.656-31.279-12.236-24.302-66.478-52.467c-7.997-4.151-16.725-4.534-23.124,0.847h-7.669    c-39.208-62.378-22.987-36.573-42.717-67.957c-4.314-6.864-13.303-13.958-17.602-16.201c-1.228-0.638-44.589-23.153-45.821-23.794    c-8.247-4.124-17.017-5.28-24.407,0.096c-47.83,20.748-88.512,2.559-93.523,0.142c-7.379-5.52-16.247-4.414-24.598-0.239    C76.071,89.34,86.618,80.324,62.125,119.289h0.001l-0.059,0.091c0,0-57.728,91.84-57.813,91.975    c-4.877,7.562-6.399,20.284-0.043,31.27l39.714,68.598c6.697,11.251,17.102,11.943,23.094,9.135    c0.793-0.372-1.242,0.928,30.185-20.023c8.58-5.721,8.629-16.223,3.595-24.665c-0.014-0.024-23.719-40.047-23.733-40.071    l28.168-45.488v21.178c0,4.144,3.357,7.501,7.501,7.501s7.501-3.357,7.501-7.501v-23.708c0-5.007,0-16.734-8.639-19.336    c-6.396-1.926-12.335,3.122-15.845,8.68l-33.833,54.638c-1.47,2.374-1.499,5.368-0.076,7.772    c26.208,44.252,27.992,46.498,27.321,48.285c-0.096,0.133-28.459,19.017-28.596,19.108c-2.533,0.297-1.184,1.252-43.37-71.619    c-4.597-7.943-0.763-14.894-0.204-15.826c0.065-0.104,57.709-91.811,57.775-91.914c22.455-33.684,10.14-25.712,50.376-46.606    l41.9,19.87v47.016c0,4.143,3.358,7.501,7.501,7.501s7.501-3.359,7.501-7.501v-39.902l21.867,10.371v113.002    c-36.323,0-27.845-3.564-56.271,27.956c-0.706,0.78-6.189,7.106-6.189,15.332v35.651c0,11.041,8.982,20.023,20.024,20.023h42.436    v33.245h-73.468c-4.198,0-9.808-0.866-10.21-8.329V250.451c0-4.144-3.357-7.501-7.501-7.501s-7.501,3.357-7.501,7.501    c0,0.239-0.004,104.823,0.007,105.062c0.466,10.526,7.346,22.817,25.205,22.817c2.362,0,132.73,0,134.925,0    c0,0.24-0.004,60.093,0.007,60.332c0.424,9.593,6.68,20.797,22.916,20.797h92.223c4.144,0,7.501-3.357,7.501-7.501    s-3.357-7.501-7.501-7.501h-92.224c-3.747,0-7.609-0.754-7.921-6.311c0-170.672,0.024-160.079-0.041-161.719    c-0.25-1,0.315-15.53-10.408-16.019c-9.061-0.413-13.574,9.764-21.739,22.991l-29.267-21.257    c-0.069-1.243,0.264-1.378,21.641-35.388c12.955-20.429,13.814-23.998,22.982-29.666c46.939-24.375,43.846-23.946,47.526-20.265    c0.366,0.366,24.182,24.193,24.561,24.545c14.112,14.112,32.842,12.343,45.046-0.37l0.001,0.001l25.594-25.595    c2.608-1.694,4.943,0.31,46.105,21.684c2.138,1.322,7.628,5.238,10.147,9.244c35.026,55.644,34.566,54.644,34.479,55.812    L467.733,283.4c-0.346-0.558-8.714-14.069-9.06-14.627c-2.72-4.431-7.402-8.625-12.625-8.367    c-6.97,0.318-10.505,6.427-10.505,18.155v159.587c-0.437,7.793-6.786,6.311-20.021,6.311c-4.144,0-7.501,3.357-7.501,7.501    s3.357,7.501,7.501,7.501h12.098c14.781,0,22.925-10.04,22.925-21.128v-154.19c4.23,6.83,7.069,13.544,14.773,14.783    c2.454,0.398,6.231,0.241,10.322-2.728c0.127-0.092,30.492-22.145,30.616-22.24C512.482,269.184,514.119,260.094,508.814,251.791z     M141.855,72.084c4.207-2.184,10.611-6.18,13.837-3.825l19.756,19.756L141.855,72.084z M203.911,315.08h-42.434    c-2.769,0-5.022-2.252-5.022-5.021v-35.651c0-1.955,1.571-4.408,2.345-5.306c21.078-23.371,19.698-22.718,23.147-22.981h21.964    L203.911,315.08z M218.916,280.684c22.597,16.412,24.165,18.862,30.649,18.363c8.325-0.635,11.417-7.82,15.805-14.905v28.929    c-2.009,2.681-0.235,2.01-46.454,2.01V280.684z M218.916,363.327v-33.245c46.32,0,43.7,0.146,46.454-0.416v33.661L218.916,363.327    L218.916,363.327z M267.515,68.035c3.503-1.781,9.066,1.769,13.458,4.05l-33.591,15.93    C247.768,87.629,267.03,68.282,267.515,68.035z M211.415,102.765L187.681,79.03c12.96,2.339,29.318,3.289,47.634-0.166    L211.415,102.765z M319.434,164.017c-1-0.842-1.741-1.271-2.25-1.569c-3.001-1.759-6.354-2.532-9.781-2.426    c-6.947,0.224-7.426,1.242-51.004,23.871c-12.613,6.583-17.093,16.662-36.305,47.229h-1.177V118.118l21.869-10.372v39.903    c0,4.143,3.357,7.501,7.501,7.501s7.501-3.358,7.501-7.501v-47.017l41.898-19.869l23.674,12.293    c2.497,1.538,9.019,6.183,12.041,10.99l37.698,59.971H319.434z M357.824,196.227c-7.26,0.194-11.462-5.324-23.344-17.208h46.953    C368.136,192.317,365.741,196.051,357.824,196.227z M487.991,218.664c-0.009-0.015-0.02-0.032-0.027-0.043    C487.971,218.633,487.98,218.647,487.991,218.664z" fill="#21212a"/>
	</g>
</g>
<g>
</g>
<g>
</g>
<g>
</g>
<g>
</g>
<g>
</g>
<g>
</g>
<g>
</g>
<g>
</g>
<g>
</g>
<g>
</g>
<g>
</g>
<g>
</g>
<g>
</g>
<g>
</g>
<g>
</g>
</svg>
