<svg xmlns="http://www.w3.org/2000/svg" viewBox="0 0 512 512"><path d="M509.473 256.394l-59.391-67.801a10.203 10.203 0 0 0-7.672-3.479h-49.455v-41.872c0-5.633-4.567-10.199-10.199-10.199H172.109c-5.632 0-10.199 4.566-10.199 10.199v13.762H63.818c-5.632 0-10.199 4.566-10.199 10.199s4.567 10.199 10.199 10.199h98.092v132.21h-59.046c-5.632 0-10.199 4.566-10.199 10.199s4.567 10.199 10.199 10.199h59.046v10.365c0 5.633 4.567 10.199 10.199 10.199h21.288c4.485 16.339 19.459 28.382 37.203 28.382 17.744 0 32.718-12.043 37.204-28.382h136.089v-.001c4.485 16.339 19.459 28.382 37.203 28.382 17.744 0 32.718-12.043 37.204-28.382h23.502c5.632 0 10.199-4.566 10.199-10.199v-77.261c-.001-2.471-.9-4.86-2.528-6.719zM230.6 358.558c-10.026 0-18.182-8.157-18.182-18.183s8.156-18.183 18.182-18.183 18.183 8.157 18.183 18.183-8.157 18.183-18.183 18.183zm37.202-28.382c-4.485-16.339-19.46-28.382-37.204-28.382s-32.717 12.043-37.203 28.382h-11.089V153.44h190.247v176.736H267.802zm173.292 28.382c-10.026 0-18.182-8.157-18.182-18.183s8.156-18.183 18.182-18.183c10.026 0 18.183 8.157 18.183 18.183s-8.156 18.183-18.183 18.183zm50.508-28.382h-13.304c-4.485-16.339-19.46-28.382-37.204-28.382s-32.717 12.043-37.203 28.382h-10.939V205.512h44.831l53.818 61.437v63.227zM69.261 309.611h-5.442c-5.632 0-10.199 4.566-10.199 10.199s4.567 10.199 10.199 10.199h5.442c5.632 0 10.199-4.566 10.199-10.199s-4.566-10.199-10.199-10.199z"/><path d="M119.5 232.276H10.199C4.567 232.276 0 236.842 0 242.475s4.567 10.199 10.199 10.199H119.5c5.632 0 10.199-4.566 10.199-10.199s-4.567-10.199-10.199-10.199z"/></svg>