<svg xmlns="http://www.w3.org/2000/svg" viewBox="0 0 490 490"><path d="M489.927 239.193c-.015-.609-.038-1.217-.057-1.825a265.14 265.14 0 0 0-.151-4.003 247.336 247.336 0 0 0-.351-5.934c-.046-.647-.089-1.294-.141-1.94a235.27 235.27 0 0 0-.411-4.635c-.034-.355-.063-.712-.099-1.067a241.775 241.775 0 0 0-.643-5.618c-.068-.552-.148-1.101-.221-1.652-.177-1.33-.359-2.657-.558-3.98a271.24 271.24 0 0 0-.919-5.681c-.117-.676-.234-1.353-.356-2.027-.24-1.319-.495-2.633-.756-3.945-.105-.53-.204-1.062-.313-1.59-.371-1.8-.761-3.593-1.171-5.378-.11-.483-.232-.963-.346-1.444-.314-1.327-.634-2.65-.968-3.968-.173-.679-.353-1.356-.531-2.033a238.008 238.008 0 0 0-2.537-8.939c-.19-.627-.377-1.256-.572-1.88a237.36 237.36 0 0 0-1.657-5.104c-.124-.368-.258-.732-.384-1.101a239.465 239.465 0 0 0-1.435-4.073c-.244-.671-.496-1.338-.745-2.007a242.501 242.501 0 0 0-2.038-5.279 239.015 239.015 0 0 0-1.25-3.059c-.282-.68-.563-1.36-.851-2.037a242.757 242.757 0 0 0-1.583-3.618c-.208-.467-.409-.938-.62-1.403a239.047 239.047 0 0 0-2.194-4.7c-.311-.65-.632-1.293-.948-1.939-.482-.983-.967-1.965-1.461-2.94a260.409 260.409 0 0 0-2.541-4.87c-.369-.69-.739-1.382-1.115-2.069a244.925 244.925 0 0 0-1.66-2.968c-.33-.584-.654-1.172-.989-1.753a244.572 244.572 0 0 0-2.616-4.424c-.359-.595-.73-1.182-1.095-1.773-.581-.941-1.163-1.88-1.756-2.812-.427-.671-.858-1.336-1.292-2.002a248.138 248.138 0 0 0-3.021-4.545c-.601-.881-1.21-1.755-1.822-2.628-.419-.599-.834-1.2-1.259-1.794a247.633 247.633 0 0 0-3.004-4.12c-26.757-35.862-63.104-64.141-105.236-81.062l-.006-.002a244.777 244.777 0 0 0-5.057-1.963l-.363-.138a242.44 242.44 0 0 0-4.844-1.75l-.654-.23a238.21 238.21 0 0 0-4.663-1.562l-.903-.294c-1.494-.478-2.996-.94-4.503-1.391-.38-.113-.759-.227-1.138-.338a243.225 243.225 0 0 0-9.914-2.684c-.527-.131-1.057-.259-1.586-.387a236.389 236.389 0 0 0-4.055-.943c-.597-.133-1.195-.261-1.793-.391-1.303-.28-2.606-.553-3.916-.813-.668-.132-1.338-.258-2.008-.385-1.252-.237-2.506-.47-3.765-.688-.741-.129-1.486-.248-2.23-.37-1.2-.197-2.401-.391-3.607-.57-.817-.122-1.638-.23-2.457-.344-1.146-.158-2.292-.318-3.444-.46-.895-.111-1.795-.207-2.693-.308-1.088-.122-2.175-.248-3.268-.356-.985-.098-1.975-.177-2.964-.263-1.017-.088-2.031-.183-3.052-.259-1.103-.082-2.213-.143-3.32-.21-.917-.056-1.831-.121-2.751-.167-1.295-.064-2.597-.104-3.896-.148-.743-.025-1.484-.063-2.23-.081a243.758 243.758 0 0 0-12.347-.001c-.747.019-1.488.056-2.233.081-1.299.044-2.599.084-3.893.148-.922.045-1.838.111-2.756.167-1.105.067-2.213.129-3.315.21-1.022.076-2.039.171-3.058.259-.986.085-1.975.165-2.957.263-1.096.108-2.186.235-3.277.357-.895.101-1.791.196-2.683.307-1.155.143-2.304.303-3.454.461-.816.113-1.634.222-2.447.342-1.21.18-2.414.375-3.618.572-.739.121-1.48.239-2.218.367-1.264.219-2.521.453-3.778.69-.665.127-1.33.251-1.993.382a255.79 255.79 0 0 0-3.931.816c-.593.127-1.185.255-1.776.387a248.505 248.505 0 0 0-11.199 2.78c-1.464.4-2.923.813-4.377 1.24-.369.108-.737.219-1.104.329-1.52.453-3.032.92-4.538 1.402-.288.092-.575.186-.862.28a240.475 240.475 0 0 0-4.707 1.577c-.2.069-.399.141-.6.211a241.862 241.862 0 0 0-4.9 1.771l-.289.11C114.502 32.253 76.252 61.402 48.41 98.773a243.755 243.755 0 0 0-2.886 3.956c-.448.628-.888 1.264-1.33 1.896a257.6 257.6 0 0 0-1.75 2.524 254.65 254.65 0 0 0-3.017 4.536c-.445.687-.891 1.372-1.33 2.063-.572.899-1.133 1.805-1.693 2.712-.385.623-.774 1.241-1.153 1.867a247.032 247.032 0 0 0-2.597 4.393c-.348.603-.685 1.213-1.027 1.819a228.87 228.87 0 0 0-1.624 2.904c-.382.698-.757 1.4-1.133 2.102-.485.905-.965 1.814-1.438 2.727-.369.709-.735 1.42-1.098 2.134-.488.963-.966 1.932-1.441 2.902-.322.657-.648 1.311-.965 1.972a240.735 240.735 0 0 0-2.163 4.632c-.224.494-.438.993-.659 1.488a239.094 239.094 0 0 0-1.57 3.591c-.29.68-.57 1.363-.854 2.045a237.78 237.78 0 0 0-2.09 5.188 257.26 257.26 0 0 0-1.194 3.142c-.25.67-.503 1.338-.748 2.012a256.946 256.946 0 0 0-1.431 4.063c-.127.371-.262.738-.387 1.109a239.272 239.272 0 0 0-1.657 5.105c-.195.624-.382 1.251-.572 1.877-.35 1.148-.694 2.299-1.027 3.454a242.095 242.095 0 0 0-1.511 5.49c-.178.675-.357 1.348-.528 2.025a251.185 251.185 0 0 0-.973 3.982c-.112.479-.232.954-.343 1.433-.41 1.787-.8 3.581-1.171 5.382-.109.526-.207 1.056-.313 1.583a243.765 243.765 0 0 0-.757 3.951c-.122.674-.239 1.35-.357 2.025a242.82 242.82 0 0 0-.603 3.645c-.107.678-.214 1.355-.315 2.035a248.82 248.82 0 0 0-.559 3.992c-.072.547-.151 1.092-.22 1.641-.234 1.867-.45 3.74-.643 5.62-.036.355-.064.712-.099 1.067a235.27 235.27 0 0 0-.411 4.635c-.052.645-.095 1.293-.141 1.94a247.336 247.336 0 0 0-.351 5.934c-.061 1.331-.11 2.666-.151 4.003-.019.608-.042 1.215-.057 1.825C.028 241.124 0 243.059 0 245c0 1.737.027 3.468.065 5.196.017.778.037 1.556.061 2.332.021.667.049 1.331.075 1.996 1.684 44.022 14.979 85.063 36.915 120.154a245.46 245.46 0 0 0 13.386 19.293l.078.102a246.383 246.383 0 0 0 14.949 17.681l.366.393a252.343 252.343 0 0 0 3.022 3.183l.127.131a247.232 247.232 0 0 0 9.748 9.519l.318.295c.988.91 1.985 1.809 2.988 2.702.275.246.552.491.828.736.981.865 1.965 1.724 2.959 2.573.229.197.463.391.693.587a245.987 245.987 0 0 0 9.723 7.835c.33.253.659.509.991.76.944.715 1.896 1.42 2.852 2.121a260.84 260.84 0 0 0 4.174 3.004c.443.311.891.618 1.337.927a247.083 247.083 0 0 0 9.585 6.314c.547.342 1.091.686 1.64 1.023.901.554 1.808 1.099 2.716 1.641a276.468 276.468 0 0 0 4.535 2.646c.637.361 1.276.715 1.916 1.071a244.648 244.648 0 0 0 9.539 5.036c.71.355 1.418.711 2.132 1.059.882.431 1.77.853 2.657 1.273.729.345 1.461.687 2.194 1.024.888.409 1.774.816 2.668 1.214.753.336 1.51.663 2.267.992.884.384 1.765.772 2.654 1.146l.007.003C179.337 483.221 211.376 490 245 490c33.172 0 64.796-6.606 93.649-18.552l.007-.003a247.42 247.42 0 0 0 4.43-1.889l.448-.196c1.438-.633 2.87-1.278 4.295-1.938l.363-.169a244.497 244.497 0 0 0 21.835-11.531c.148-.088.297-.175.445-.264a244.22 244.22 0 0 0 4.54-2.781c1.213-.761 2.419-1.53 3.618-2.312l.74-.488c1.232-.81 2.46-1.626 3.677-2.457l.148-.102a246.582 246.582 0 0 0 11.577-8.431c.195-.151.393-.299.588-.451a243.621 243.621 0 0 0 3.028-2.404c.407-.327.815-.653 1.221-.983a244.179 244.179 0 0 0 4.166-3.473 247.88 247.88 0 0 0 2.634-2.272c.481-.421.957-.848 1.434-1.273.858-.764 1.715-1.526 2.561-2.302.445-.408.884-.823 1.326-1.234a248.147 248.147 0 0 0 5.397-5.165c.247-.243.498-.481.743-.726.709-.705 1.404-1.422 2.104-2.136.581-.593 1.164-1.183 1.739-1.782.657-.684 1.306-1.376 1.954-2.067.608-.648 1.215-1.297 1.816-1.951a247.625 247.625 0 0 0 3.708-4.133c.576-.657 1.152-1.315 1.723-1.979a239.94 239.94 0 0 0 1.96-2.318c.517-.616 1.037-1.229 1.547-1.851a248.86 248.86 0 0 0 2.414-2.997c.333-.419.674-.832 1.004-1.253a243.18 243.18 0 0 0 3.254-4.244c.393-.522.775-1.053 1.162-1.578.706-.957 1.41-1.915 2.102-2.882.426-.594.844-1.193 1.265-1.792a242.518 242.518 0 0 0 3.164-4.613c.631-.943 1.254-1.892 1.872-2.845.388-.597.776-1.193 1.158-1.794a247.474 247.474 0 0 0 1.965-3.148c.317-.515.64-1.026.953-1.543.938-1.548 1.86-3.106 2.764-4.676l.046-.077.002-.004c19.162-33.328 30.691-71.595 32.253-112.416.026-.665.054-1.329.075-1.996.023-.777.044-1.554.061-2.332.038-1.728.065-3.459.065-5.196 0-1.942-.028-3.877-.073-5.808zM255 76.606l61.818-44.913a224.588 224.588 0 0 1 15.756 5.98C359.365 49.005 383.43 65.23 404.1 85.9a225.571 225.571 0 0 1 29.78 36.764l-21.575 68.122-64.304 21.111L255 144.33V76.606zM85.901 85.9c20.67-20.67 44.734-36.895 71.525-48.227a224.544 224.544 0 0 1 15.757-5.98L235 76.606v67.724l-93.498 67.93-63.704-21.152-21.677-68.443A225.63 225.63 0 0 1 85.901 85.9zm39.323 302.734l-61.027-9.667a223.825 223.825 0 0 1-26.522-46.395C26.205 305.456 20.281 276.675 20.026 247l51.564-36.881 63.743 21.165 36.109 111.131-46.218 46.219zm217.155 59.267a227.665 227.665 0 0 1-9.805 4.425C304.848 464.054 275.384 470 245 470c-30.383 0-59.848-5.946-87.573-17.674a226.444 226.444 0 0 1-11.007-5.018l-7.053-44.533 49.84-49.84h118.586l42.842 42.841-8.256 52.125zm109.947-115.328a224.206 224.206 0 0 1-20.922 38.507l-66.629 10.552-44.498-44.499 34.584-106.44 63.272-20.773 51.842 37.079c-.255 29.677-6.179 58.458-17.649 85.574z"/></svg>