<svg xmlns="http://www.w3.org/2000/svg" viewBox="0 0 463 463"><path d="M439.36 127.737a15.985 15.985 0 0 0-1.79-.906l-27.24-85.888c-3.021-9.611-10.532-17.25-20.089-20.436L332.334 1.206c-2.4-.8-4.9-1.206-7.431-1.206h-21.851c-7.915 0-14.533 5.908-15.393 13.742C284.516 42.394 260.372 64 231.5 64s-53.016-21.606-56.16-50.258C174.48 5.908 167.862 0 159.947 0h-21.851c-2.53 0-5.03.406-7.432 1.206L72.759 20.508c-9.558 3.186-17.068 10.825-20.085 20.419l-27.245 85.905c-.609.261-1.207.562-1.79.906-4.784 2.814-7.64 7.809-7.64 13.359v13.697a15.508 15.508 0 0 0 7.973 13.549L88 203.913V415.5c0 5.827 3.235 10.908 8 13.555V447.5c0 8.547 6.953 15.5 15.5 15.5h240c8.547 0 15.5-6.953 15.5-15.5v-18.445c4.765-2.647 8-7.728 8-13.555V203.913l64.027-35.571A15.508 15.508 0 0 0 447 154.793v-13.697c0-5.55-2.855-10.544-7.64-13.359zm-17.013.713L375 154.754v-32.767a48.29 48.29 0 0 1 3.286-17.548l20.057-51.675 24.004 75.686zM160.43 15.378C164.41 51.648 194.964 79 231.5 79s67.09-27.352 71.07-63.622c.024-.208.24-.378.483-.378h16.62c-1.775 21.208-11.031 40.896-26.407 55.882C276.646 87.08 254.712 96 231.5 96c-23.318 0-45.327-8.992-61.971-25.318C154.265 55.708 145.1 36.108 143.334 15h16.613c.243 0 .459.17.483.378zm-31.926 2.36c2.36 24.129 13.024 46.488 30.522 63.653C178.49 100.484 204.229 111 231.5 111c27.146 0 52.799-10.433 72.235-29.376 17.625-17.179 28.389-39.64 30.763-63.885l51 17c1.121.374 2.178.88 3.177 1.474L364.302 99.01A63.261 63.261 0 0 0 360 121.986V368H103V121.986a63.24 63.24 0 0 0-4.302-22.976L74.324 36.212c.999-.593 2.056-1.1 3.177-1.473l51.003-17.001zM360 415.5a.5.5 0 0 1-.5.5h-256a.5.5 0 0 1-.5-.5V383h257v32.5zM64.657 52.761l20.057 51.677A48.29 48.29 0 0 1 88 121.986v32.767L40.653 128.45l24.004-75.689zM31.258 155.23a.5.5 0 0 1-.258-.437v-13.697c0-.114 0-.286.246-.431a.512.512 0 0 1 .26-.081c.103 0 .178.042.236.075L88 171.913v14.84L31.258 155.23zM351.5 448h-240a.5.5 0 0 1-.5-.5V431h241v16.5a.5.5 0 0 1-.5.5zM432 154.793a.5.5 0 0 1-.258.437L375 186.753v-14.84l56.258-31.254c.1-.056.25-.138.496.006.246.145.246.317.246.431v13.697z"/><path d="M173.128 206.615a7.502 7.502 0 0 0 9.487-4.744l6.29-18.872H192v105h-8.5c-4.143 0-7.5 3.358-7.5 7.5s3.357 7.5 7.5 7.5h32c4.143 0 7.5-3.358 7.5-7.5s-3.357-7.5-7.5-7.5H207V175.5a7.5 7.5 0 0 0-7.5-7.5h-16a7.499 7.499 0 0 0-7.115 5.128l-8 24a7.5 7.5 0 0 0 4.743 9.487zM262.5 303h2c16.817 0 30.5-13.682 30.5-30.5v-74c0-16.818-13.683-30.5-30.5-30.5h-2c-16.817 0-30.5 13.682-30.5 30.5v74c0 16.818 13.683 30.5 30.5 30.5zM247 198.5c0-8.547 6.953-15.5 15.5-15.5h2c8.547 0 15.5 6.953 15.5 15.5v74c0 8.547-6.953 15.5-15.5 15.5h-2c-8.547 0-15.5-6.953-15.5-15.5v-74z"/></svg>