<?xml version="1.0" encoding="iso-8859-1"?>
<!-- Generator: Adobe Illustrator 19.0.0, SVG Export Plug-In . SVG Version: 6.00 Build 0)  -->
<svg xmlns="http://www.w3.org/2000/svg" xmlns:xlink="http://www.w3.org/1999/xlink" version="1.1" id="Capa_1" x="0px" y="0px" viewBox="0 0 511.122 511.122" style="enable-background:new 0 0 511.122 511.122;" xml:space="preserve" width="512px" height="512px">
<g>
	<g>
		<path d="M264.098,246.588h-17.067c-4.713,0-8.533,3.82-8.533,8.533c0,4.713,3.82,8.533,8.533,8.533h17.067    c4.713,0,8.533-3.82,8.533-8.533C272.631,250.409,268.81,246.588,264.098,246.588z" fill="#21212a"/>
	</g>
</g>
<g>
	<g>
		<path d="M272.631,280.722h-34.133c-4.713,0-8.533,3.821-8.533,8.533c0,4.713,3.82,8.533,8.533,8.533h34.133    c4.713,0,8.533-3.821,8.533-8.533C281.164,284.542,277.344,280.722,272.631,280.722z" fill="#21212a"/>
	</g>
</g>
<g>
	<g>
		<path d="M229.964,186.855h-34.133c-4.713,0-8.533,3.82-8.533,8.533s3.82,8.533,8.533,8.533h8.533v8.533    c0,4.713,3.821,8.533,8.533,8.533c4.713,0,8.533-3.82,8.533-8.533v-8.533h8.533c4.713,0,8.533-3.82,8.533-8.533    S234.677,186.855,229.964,186.855z" fill="#21212a"/>
	</g>
</g>
<g>
	<g>
		<path d="M315.298,186.855h-34.133c-4.713,0-8.533,3.82-8.533,8.533s3.82,8.533,8.533,8.533h8.533v8.533    c0,4.713,3.82,8.533,8.533,8.533s8.533-3.82,8.533-8.533v-8.533h8.533c4.713,0,8.533-3.82,8.533-8.533    S320.01,186.855,315.298,186.855z" fill="#21212a"/>
	</g>
</g>
<g>
	<g>
		<path d="M461.389,477.739l-11.358-35.55c-15.254-40.66-54.127-67.597-97.554-67.6h-23.313c-5.029-16.466-6.027-33.9-2.912-50.833    c1.066-9.038,2.588-18.017,4.56-26.902c10.565-11.566,17.08-26.255,18.56-41.85c1.078,0.311,2.188,0.496,3.308,0.552    c1.557-0.003,3.104-0.259,4.579-0.758c4.396-1.467,17.771-5.925,17.771-59.409c0.748-9.114-1.892-18.184-7.415-25.472    c10.381-16.689,15.904-35.941,15.949-55.595c0-68.45-7.067-100.55-24.387-110.8c-15.108-8.95-32.808,0.783-51.554,11.083    c-15.908,8.742-33.942,18.65-52.058,18.65c-54.95,0-128,8.4-128,81.067c-0.024,4.68,0.307,9.354,0.992,13.983    c1.994,14.776,7.082,28.965,14.932,41.641c-5.503,7.286-8.133,16.342-7.39,25.442c0,53.483,13.375,57.941,17.771,59.408    c1.475,0.499,3.022,0.755,4.579,0.758c1.12-0.056,2.231-0.241,3.308-0.552c1.48,15.595,7.995,30.285,18.56,41.852    c1.975,8.901,3.499,17.896,4.565,26.951c3.111,16.917,2.111,34.334-2.916,50.783l-23.313,0    c-43.587-0.006-82.567,27.13-97.692,68.008l-11.221,35.142c-4.299,13.468,3.134,27.872,16.602,32.171    c2.517,0.803,5.143,1.212,7.785,1.212h362.875c14.138,0,25.599-11.46,25.6-25.598    C462.602,482.882,462.193,480.255,461.389,477.739z M357.964,195.388c0,26.717-3.717,38.675-5.842,42.375    c-1.358-1.193-2.591-2.519-3.682-3.96c-0.507-16.59,1.129-33.176,4.867-49.347c0.385-0.308,0.789-0.591,1.21-0.846    c0.62-0.098,1.228-0.264,1.811-0.496C357.678,187.057,358.234,191.229,357.964,195.388z M145.452,125.897    c-0.568-3.832-0.843-7.701-0.821-11.575c0-29.8,12.608-64,110.933-64c22.496,0,42.567-11.025,60.275-20.758    c14.367-7.892,27.921-15.333,34.65-11.35c7.3,4.317,16.008,24.5,16.008,96.108c-0.027,15.324-4.031,30.379-11.62,43.693    l-3.924-0.119l-36.584-46.723c-7.286-10.304-21.545-12.751-31.849-5.465c-0.344,0.243-0.68,0.495-1.01,0.757    c-15.359,11.728-36.675,11.697-52-0.075c-9.901-7.789-24.241-6.076-32.03,3.825c-0.248,0.316-0.489,0.638-0.72,0.967    l-38.841,49.598C151.371,150.15,147.124,138.267,145.452,125.897z M162.693,233.797c-1.092,1.443-2.328,2.772-3.687,3.967    c-2.125-3.7-5.842-15.659-5.842-42.375c-0.27-4.162,0.286-8.337,1.634-12.284c0.482,0.155,0.978,0.267,1.48,0.334    c0.56,0.316,1.095,0.673,1.602,1.07C161.586,200.664,163.203,217.229,162.693,233.797z M178.764,254.438    c0-1.892,0.075-3.783,0.217-5.508c2.513-25.474,0.401-51.193-6.233-75.917l-0.083-0.275c-0.1-0.433-0.217-0.825-0.325-1.2    c-0.096-0.379-0.174-0.782-0.268-1.161l38.122-48.673c1.787-2.919,5.602-3.836,8.521-2.048c0.18,0.11,0.354,0.229,0.521,0.357    c21.492,16.395,51.301,16.364,72.758-0.075c2.73-2.028,6.587-1.459,8.615,1.271c0.117,0.157,0.226,0.32,0.327,0.487l38.08,48.627    c-0.165,0.731-0.246,1.383-0.434,2.14l-0.396,1.458c-0.15,0.542-0.296,1.084-0.337,1.3c-6.193,24.016-8.125,48.933-5.708,73.617    c0.154,1.817,0.225,3.708,0.225,5.6c0,16.525-17.846,40.083-50.279,66.35c-15.472,12.534-37.607,12.524-53.067-0.025    C196.61,294.522,178.764,270.963,178.764,254.438z M201.835,321.839L201.835,321.839c-0.089-0.791-0.249-1.638-0.348-2.437    c5.153,4.781,10.617,9.625,16.765,14.604c21.737,17.635,52.851,17.646,74.6,0.025c6.156-4.986,11.628-9.837,16.786-14.625    c-0.096,0.78-0.253,1.611-0.341,2.383c-3.114,26.125-1.594,46.256,4.434,60.084c-14.686,16.877-35.802,26.787-58.168,27.299    c-22.366-0.512-43.482-10.422-58.167-27.299C203.426,368.046,204.945,347.919,201.835,321.839z M93.431,494.055H74.127    c-2.727,0.015-5.292-1.289-6.888-3.5c-1.623-2.194-2.085-5.038-1.242-7.633l11.079-34.733c3.75-9.925,9.294-19.075,16.354-26.995    V494.055z M127.564,494.055h-17.067V406.15c5.347-3.533,11.071-6.457,17.067-8.719V494.055z M161.698,494.055h-17.067V392.869    c3.221-0.515,6.468-0.851,9.726-1.005c1.411,6.927,3.887,13.593,7.341,19.762V494.055z M195.831,494.055h-17.067v-61.119    c5.244,4.633,10.965,8.696,17.067,12.121V494.055z M229.964,494.055h-17.067v-41.134c5.563,2.018,11.268,3.622,17.067,4.802    V494.055z M264.098,494.055h-8.533h-8.533v-34.013c2.82,0.185,5.655,0.329,8.533,0.329c2.878,0,5.713-0.144,8.533-0.329V494.055z     M298.231,494.055h-17.067v-36.332c5.799-1.179,11.503-2.784,17.067-4.802V494.055z M332.364,494.055h-17.067v-48.998    c6.102-3.425,11.823-7.488,17.067-12.121V494.055z M255.564,443.305c-41.31,0-75.916-22.063-83.674-51.65h11.312    c18.09,21.313,44.416,33.895,72.363,34.583c27.947-0.689,54.272-13.27,72.363-34.583h11.312    C331.48,421.243,296.875,443.305,255.564,443.305z M366.498,494.055h-17.067v-82.429c3.454-6.168,5.93-12.834,7.341-19.761    c3.258,0.154,6.505,0.489,9.726,1.005V494.055z M400.631,494.055h-17.067v-96.625c5.996,2.262,11.72,5.186,17.067,8.719V494.055z     M439.59,493.651c-0.837,0.267-1.71,0.403-2.588,0.404h-19.304v-72.864c6.978,7.802,12.473,16.812,16.212,26.589l11.221,35.142    C446.564,487.415,444.083,492.219,439.59,493.651z" fill="#21212a"/>
	</g>
</g>
<g>
</g>
<g>
</g>
<g>
</g>
<g>
</g>
<g>
</g>
<g>
</g>
<g>
</g>
<g>
</g>
<g>
</g>
<g>
</g>
<g>
</g>
<g>
</g>
<g>
</g>
<g>
</g>
<g>
</g>
</svg>
