<svg xmlns="http://www.w3.org/2000/svg" width="512" height="512"><path d="M94.603 92.013a15.547 15.547 0 0 0 18.82 11.253l25.776-6.402c2.92-.701 3.679 1.572 3.679 2.875V263.18c0 8.533 6.951 15.482 15.489 15.482h171.898c8.542 0 15.497-6.949 15.497-15.482V99.776c0-1.131.325-3.025 2.545-3.025.345 0 .739.052 1.124.15l25.658 6.369c1.223.304 2.487.459 3.745.459 7.123 0 13.32-4.816 15.074-11.711l8.878-34.799a15.315 15.315 0 0 0-1.703-11.732 15.304 15.304 0 0 0-9.521-7.048l-81.39-20.206a60.986 60.986 0 0 0-15.039-1.883l-19.914-.033-.951 3.933c-3.37 14.029-15.792 23.825-30.209 23.825-14.42 0-26.844-9.795-30.21-23.825l-.95-3.933h-18.682l-.917.038c-5.048 0-10.095.637-14.959 1.872L96.954 38.439a15.32 15.32 0 0 0-9.527 7.048 15.32 15.32 0 0 0-1.7 11.732l8.876 34.794zm1.632-41.253a5.09 5.09 0 0 1 3.188-2.352l27.305-6.781 5.246 20.648 32.343-8.219-5.202-20.467 21.746-5.401c4.07-1.036 8.253-1.565 12.725-1.565l11.443-.038a41.207 41.207 0 0 0 39.041 27.758c17.801 0 33.316-11.227 39.034-27.758l12.088.038c4.175 0 8.38.528 12.482 1.573l81.416 20.211a5.124 5.124 0 0 1 3.179 2.352 5.084 5.084 0 0 1 .566 3.923l-8.878 34.799c-.702 2.758-3.619 4.53-6.391 3.826l-25.653-6.369a14.956 14.956 0 0 0-3.601-.447c-7.309 0-12.812 5.713-12.812 13.29v163.41c0 2.877-2.348 5.215-5.225 5.215H158.367a5.223 5.223 0 0 1-5.222-5.215V99.744c0-7.578-5.513-13.29-12.823-13.29-1.18 0-2.397.148-3.597.447l-25.776 6.402c-2.825.7-5.694-1.068-6.402-3.826l-8.876-34.799a5.095 5.095 0 0 1 .564-3.918zm270.048 438.225l-15.207-155.866a11.976 11.976 0 0 0-4.794-8.493v-27.162c0-4.371-3.556-7.927-7.927-7.927H150.157c-4.371 0-7.927 3.556-7.927 7.927v27.161a11.973 11.973 0 0 0-4.794 8.493L122.23 488.985a7.944 7.944 0 0 0 2.018 6.096 7.942 7.942 0 0 0 5.871 2.601h90.868a11.99 11.99 0 0 0 11.847-9.995l11.17-65.426c.02-.12.048-.166.047-.166.078-.062.334-.062.406-.006 0 0 .03.045.051.171l11.17 65.426a11.989 11.989 0 0 0 11.847 9.996h90.868a7.942 7.942 0 0 0 5.871-2.601 7.944 7.944 0 0 0 2.019-6.096zm-22.842-155.12l4.698 48.15c-3.805-2.023-9.898-5.721-16.111-11.382-12.312-11.22-19.723-24.894-22.078-40.694h29.165a4.333 4.333 0 0 1 4.326 3.926zm-193.54-36.401c0-.141.114-.256.256-.256h188.199c.141 0 .256.115.256.256v24.803h-70.063v-12.529a3.834 3.834 0 1 0-7.67 0v12.53h-33.241v-12.53a3.834 3.834 0 1 0-7.67 0v12.53h-70.064v-24.804zm119.159 94.1c0 2.397-1.95 4.347-4.347 4.347s-4.347-1.95-4.347-4.347 1.95-4.347 4.347-4.347 4.347 1.95 4.347 4.347zm-40.913 0c0 2.397-1.95 4.347-4.347 4.347s-4.347-1.95-4.347-4.347 1.95-4.347 4.347-4.347 4.347 1.95 4.347 4.347zm-83.076-57.7a4.332 4.332 0 0 1 4.327-3.925h29.165c-2.355 15.8-9.766 29.474-22.078 40.694-6.212 5.661-12.306 9.359-16.111 11.382l4.697-48.151zm-14.952 156.147c-.031 0-.113 0-.189-.084s-.068-.165-.065-.196l9.636-98.775c.864-.361 4.362-1.887 9.107-4.818L138.494 490.01l-8.375.001zm137.406 0a4.337 4.337 0 0 1-4.285-3.616l-11.171-65.426c-.663-3.882-3.876-6.592-7.814-6.592s-7.151 2.711-7.814 6.592l-11.17 65.426a4.337 4.337 0 0 1-4.285 3.616h-74.785l10.678-109.666a87.448 87.448 0 0 0 4.545-3.835c17.122-15.491 23.067-33.3 24.882-46.57h33.658v50.238c-4.751 1.605-8.183 6.101-8.183 11.387 0 6.627 5.391 12.018 12.018 12.018 6.627 0 12.018-5.391 12.018-12.018 0-5.285-3.432-9.782-8.183-11.387V329.94h33.241v50.238c-4.751 1.605-8.183 6.101-8.183 11.387 0 6.627 5.391 12.018 12.018 12.018 6.627 0 12.018-5.391 12.018-12.018 0-5.285-3.432-9.782-8.183-11.387V329.94h33.66c3.058 22.542 15.073 37.697 24.88 46.57a87.448 87.448 0 0 0 4.545 3.835l10.678 109.666h-74.783zm91.058-.084c-.076.084-.158.084-.189.084h-8.375l-10.114-103.874c4.743 2.93 8.241 4.457 9.107 4.818l9.636 98.776a.239.239 0 0 1-.065.196z"/></svg>