<?xml version="1.0" encoding="iso-8859-1"?>
<!-- Generator: Adobe Illustrator 19.0.0, SVG Export Plug-In . SVG Version: 6.00 Build 0)  -->
<svg xmlns="http://www.w3.org/2000/svg" xmlns:xlink="http://www.w3.org/1999/xlink" version="1.1" id="Capa_1" x="0px" y="0px" viewBox="0 0 511.999 511.999" style="enable-background:new 0 0 511.999 511.999;" xml:space="preserve" width="512px" height="512px">
<g>
	<g>
		<path d="M255.996,417.662c-2.764,0-5.004,2.241-5.004,5.004v25.022c0,2.764,2.241,5.004,5.004,5.004    c2.763,0,5.004-2.241,5.004-5.004v-25.022C261.001,419.903,258.76,417.662,255.996,417.662z" fill="#21212a"/>
	</g>
</g>
<g>
	<g>
		<path d="M255.996,367.617c-2.764,0-5.004,2.241-5.004,5.004v25.022c0,2.764,2.241,5.004,5.004,5.004    c2.763,0,5.004-2.241,5.004-5.004v-25.022C261.001,369.858,258.76,367.617,255.996,367.617z" fill="#21212a"/>
	</g>
</g>
<g>
	<g>
		<path d="M255.996,317.572c-2.764,0-5.004,2.241-5.004,5.004v25.022c0,2.764,2.241,5.004,5.004,5.004    c2.763,0,5.004-2.241,5.004-5.004v-25.022C261.001,319.813,258.76,317.572,255.996,317.572z" fill="#21212a"/>
	</g>
</g>
<g>
	<g>
		<path d="M255.996,267.528c-2.764,0-5.004,2.241-5.004,5.004v25.022c0,2.764,2.241,5.004,5.004,5.004    c2.763,0,5.004-2.241,5.004-5.004v-25.022C261.001,269.768,258.76,267.528,255.996,267.528z" fill="#21212a"/>
	</g>
</g>
<g>
	<g>
		<path d="M225.861,421.633h-42.05c-4.146,0-7.507,3.361-7.507,7.507s3.361,7.507,7.507,7.507h42.05    c4.146,0,7.507-3.361,7.507-7.507C233.367,424.994,230.006,421.633,225.861,421.633z" fill="#21212a"/>
	</g>
</g>
<g>
	<g>
		<path d="M329.617,421.633h-42.05c-4.146,0-7.507,3.361-7.507,7.507s3.361,7.507,7.507,7.507h42.05    c4.146,0,7.507-3.361,7.507-7.507C337.124,424.994,333.763,421.633,329.617,421.633z" fill="#21212a"/>
	</g>
</g>
<g>
	<g>
		<path d="M255.996,217.483c-2.764,0-5.004,2.241-5.004,5.004v25.022c0,2.764,2.241,5.004,5.004,5.004    c2.763,0,5.004-2.241,5.004-5.004v-25.022C261.001,219.724,258.76,217.483,255.996,217.483z" fill="#21212a"/>
	</g>
</g>
<g>
	<g>
		<path d="M367.536,185.464c-1.151-1.402-2.556-2.514-4.173-3.306c-10.689-5.232-22.019-8.947-33.274-11.558    c2.168-2.459,4.248-5.361,6.076-8.791c10.427-19.551,8.633-47.503-5.332-83.078c-1.515-3.859-5.872-5.758-9.731-4.245    c-3.859,1.515-5.76,5.871-4.245,9.731c12.02,30.619,14.177,54.89,6.238,70.189c-5.423,10.452-13.969,13.632-16.029,14.267V152.43    c0-4.146-3.361-7.507-7.507-7.507s-7.507,3.361-7.507,7.507v18.928l-3.246,0.571c-21.772,3.83-43.851,3.83-65.625,0l-3.986-0.701    v-18.797c0-4.146-3.361-7.507-7.507-7.507s-7.507,3.361-7.507,7.507v15.988c-3.179-1.152-11.47-5.098-16.288-16.107    c-6.741-15.405-7.656-46.606,26.29-107.81l4-7.323c0.694-1.273,1.904-3.28,3.722-5.617c8.187-10.518,20.611-16.55,34.087-16.55    c13.476,0,25.901,6.032,34.088,16.55c1.819,2.337,3.028,4.344,3.722,5.617c1.986,3.639,6.544,4.981,10.185,2.994    c3.639-1.986,4.98-6.546,2.994-10.185c-0.961-1.76-2.617-4.516-5.054-7.647C290.88,8.144,274.137,0,255.996,0    c-18.141,0-34.883,8.144-45.934,22.342c-2.437,3.131-4.094,5.887-5.053,7.645l-3.974,7.278    c-29.827,53.776-38.795,94.686-26.658,121.594c2.162,4.792,4.811,8.675,7.605,11.827c-11.136,2.606-22.338,6.297-32.911,11.473    c-1.406,0.687-2.639,1.629-3.696,2.78c-0.107,0.108-0.207,0.221-0.308,0.335c-0.05,0.059-0.106,0.11-0.156,0.17    c-8.984,10.896-87.572,109.418-80.471,212.167c0.286,4.136,3.876,7.255,8.006,6.971c4.136-0.285,7.257-3.87,6.971-8.006    c-5.291-76.575,40.498-151.436,64.212-184.655l2.486,124.038c-19.058,26.619-30.419,112.668-34.707,151.681H85.089l-2.218-38.454    c-0.239-4.139-3.802-7.29-7.927-7.062c-4.139,0.239-7.301,3.788-7.062,7.927l2.357,40.86c0.406,6.585,5.892,11.742,12.488,11.742    h30.926c6.403,0,11.75-4.798,12.438-11.16c4.295-39.761,11.533-86.946,20.376-118.01c0.233,40.102,0.232,103.142-1.822,124.846    c-0.33,3.49,0.834,6.981,3.195,9.576c2.367,2.602,5.743,4.094,9.262,4.094h198.221c3.524,0,6.903-1.496,9.271-4.105    c2.362-2.602,3.523-6.099,3.184-9.595c-2.109-21.735-2.284-84.413-2.159-124.496c8.802,31.067,16.005,78.066,20.285,117.688    c0.686,6.363,6.033,11.161,12.438,11.161h30.926c6.596,0,12.082-5.157,12.488-11.742l5.543-90.009    C456.333,297.021,376.655,196.58,367.536,185.464z M350.817,338.365c0,0.009-0.002,0.018-0.002,0.028    c-0.051,5.068-1.174,121.575,1.778,158.594h-91.592v-24.275c0-2.764-2.241-5.004-5.004-5.004c-2.763,0-5.004,2.241-5.004,5.004    v24.275h-91.166c2.849-36.89,1.418-153.538,1.354-158.614c0-0.008-0.002-0.015-0.002-0.022c0-0.011,0.001-0.022,0.001-0.033    l-2.884-143.91c13.264-6.078,27.701-9.67,41.159-11.754c1.543,0.55,2.536,0.779,2.702,0.815c0.105,0.023,0.21,0.044,0.315,0.063    l1.715,0.302v33.732c0,4.146,3.361,7.507,7.507,7.507s7.507-3.361,7.507-7.507v-31.091l1.385,0.243    c10.093,1.775,20.247,2.783,30.409,3.033v7.714c0,2.764,2.241,5.004,5.004,5.004c2.763,0,5.004-2.241,5.004-5.004v-7.714    c10.163-0.25,20.316-1.258,30.409-3.033l0.645-0.113v30.961c0,4.146,3.361,7.507,7.507,7.507s7.507-3.361,7.507-7.507v-33.602    l2.455-0.432c0.105-0.019,0.21-0.04,0.315-0.063c0.163-0.036,1.215-0.28,2.84-0.867c13.395,2.055,27.781,5.599,41.024,11.601    l-2.889,144.114C350.816,338.333,350.818,338.349,350.817,338.365z M432.332,399.692c-0.005,0.065-0.01,0.129-0.014,0.193    l-5.404,87.755h-26.329c-4.288-39.017-15.65-125.064-34.707-151.682l2.496-124.546C392.19,244.832,439.16,321.652,432.332,399.692    z" fill="#21212a"/>
	</g>
</g>
<g>
	<g>
		<path d="M255.996,38.897c-26.063,0-47.267,27.15-47.267,60.521c0,33.371,21.204,60.521,47.267,60.521    c26.063,0,47.268-27.15,47.268-60.521C303.264,66.046,282.06,38.897,255.996,38.897z M255.996,144.926    c-17.785,0-32.254-20.415-32.254-45.508c0-25.093,14.469-45.508,32.254-45.508c17.785,0,32.254,20.415,32.254,45.508    C288.251,124.511,273.781,144.926,255.996,144.926z" fill="#21212a"/>
	</g>
</g>
<g>
</g>
<g>
</g>
<g>
</g>
<g>
</g>
<g>
</g>
<g>
</g>
<g>
</g>
<g>
</g>
<g>
</g>
<g>
</g>
<g>
</g>
<g>
</g>
<g>
</g>
<g>
</g>
<g>
</g>
</svg>
