<svg xmlns="http://www.w3.org/2000/svg" width="512" height="512"><path d="M480.12 268.017l-36.207-36.207-.009-.008L214.729 2.626A8.508 8.508 0 0 0 208.578 0H37.911a8.53 8.53 0 0 0-8.533 8.533v443.733l.001.017v51.183a8.53 8.53 0 0 0 8.533 8.533 8.53 8.53 0 0 0 8.533-8.533V460.8h17.067v42.667c0 4.719 3.823 8.533 8.533 8.533s8.533-3.814 8.533-8.533V460.8h17.067v42.667a8.53 8.53 0 0 0 8.533 8.533 8.53 8.53 0 0 0 8.533-8.533V460.8h17.067v42.667c0 4.719 3.823 8.533 8.533 8.533s8.533-3.814 8.533-8.533V460.8h17.067v42.667a8.53 8.53 0 0 0 8.533 8.533 8.53 8.53 0 0 0 8.533-8.533V460.8h17.067v42.667c0 4.719 3.823 8.533 8.533 8.533s8.533-3.814 8.533-8.533v-51.2l-.001-.017V270.5l94.055 94.063.043.039 36.165 36.157c1.664 1.664 3.849 2.5 6.033 2.5s4.369-.836 6.033-2.5a8.523 8.523 0 0 0 0-12.066l-30.168-30.161 12.067-12.067 30.168 30.161a8.51 8.51 0 0 0 6.033 2.5 8.509 8.509 0 0 0 6.033-2.5 8.525 8.525 0 0 0 0-12.066l-30.168-30.161 12.073-12.073 30.167 30.167c1.664 1.664 3.849 2.5 6.033 2.5s4.369-.836 6.033-2.5a8.523 8.523 0 0 0 0-12.066l-30.167-30.167 12.069-12.069 30.169 30.169a8.51 8.51 0 0 0 6.033 2.5 8.509 8.509 0 0 0 6.033-2.5 8.525 8.525 0 0 0 0-12.066l-30.169-30.169 12.068-12.068 30.168 30.161c1.664 1.664 3.849 2.5 6.033 2.5s4.369-.836 6.033-2.5a8.523 8.523 0 0 0 0-12.066l-30.168-30.161 12.073-12.073 30.167 30.167a8.51 8.51 0 0 0 6.033 2.5 8.509 8.509 0 0 0 6.033-2.5 8.524 8.524 0 0 0 .003-12.068zM143.231 17.067l12.194 17.067-32.179 45.047-32.18-45.048 12.194-17.067h39.971zm-19.986 330.419l32.179 45.047-32.179 45.047-32.179-45.047 32.179-45.047zm0-29.372l-32.179-45.047 32.179-45.047 32.179 45.047-32.179 45.047zm0-119.467L91.066 153.6l32.179-45.047 32.179 45.047-32.179 45.047zm-76.8-181.58h35.846l-8.65 12.109a8.522 8.522 0 0 0-.008 9.916l39.125 54.775-39.125 54.776a8.538 8.538 0 0 0 0 9.916l39.125 54.775-39.125 54.776a8.538 8.538 0 0 0 0 9.916l39.125 54.775-39.125 54.776a8.538 8.538 0 0 0 0 9.916l33.03 46.242H46.445V17.067zm153.6 426.666h-60.216l33.03-46.242a8.538 8.538 0 0 0 0-9.916L133.733 332.8l39.125-54.775a8.538 8.538 0 0 0 0-9.916l-39.125-54.776 39.125-54.775a8.538 8.538 0 0 0 0-9.916l-39.125-54.776 39.125-54.775a8.523 8.523 0 0 0-.009-9.916l-8.65-12.109h35.845v426.667zm17.067-235.11c.808.435 1.69.75 2.631.907l66.402 11.072 11.071 66.388a8.517 8.517 0 0 0 7.006 7.014l56.082 9.352-.832.831-.034.03-.03.034-42.208 42.203-100.088-100.087v-37.744zm2.349-69.528l54.613 9.097 9.105 54.605-54.613-9.097-9.105-54.605zm84.48 84.475l54.613 9.096 9.097 54.605-54.605-9.097-9.105-54.604zm103.837 32.32c-.022.022-.046.04-.068.062-.022.022-.04.046-.061.068l-23.919 23.915-9.346-56.083a8.517 8.517 0 0 0-7.014-7.014l-66.393-11.072-11.071-66.388a8.517 8.517 0 0 0-7.006-7.014l-65.786-10.969V29.142L425.82 237.85l-18.042 18.04z" fill="#222129"/></svg>