<svg xmlns="http://www.w3.org/2000/svg" width="760.061" height="760.061"><path d="M681.562 277.162l-2.229-5.953-54.32-87.051c-3.341-9.675-10.04-14.509-19.715-14.509H532.01v-14.508c0-45.018-14.136-81.853-42.788-111.242C460.577 14.509 424.488 0 380.59 0c-44.271 0-80.638 14.596-109.377 43.899-28.557 29.112-43.16 66.225-43.16 111.242v14.508h-73.289c-8.183 0-14.136 3.714-17.485 10.786l-1.484 1.492-55.438 89.281c-1.857 4.096-2.977 7.072-2.977 8.929-2.23 5.214-3.349 10.794-3.349 16.747v418.531c0 12.652 4.373 23.16 13.024 31.629 8.841 8.65 19.715 13.016 31.993 13.016h521.965c25.295 0 45.018-19.342 45.018-44.645v-418.53c-.001-7.072-1.493-13.771-4.469-19.723zm-149.553-66.217h61.01l25.303 40.922H532.01v-40.922zm-262.662-55.804c0-33.858 10.326-61.113 30.882-82.226 20.739-21.294 47.621-31.993 80.36-31.993 32.366 0 59.153 10.786 79.614 31.993 20.461 21.208 30.882 48.367 30.882 82.226v14.508H269.347v-14.508zm0 55.804h221.739v40.922H269.347v-40.922zm-103.051 0h61.756v40.922h-86.678l24.922-40.922zm478.439 504.471c0 2.611-1.119 3.723-3.723 3.723H119.048c-2.603 0-3.722-1.111-3.722-3.723V296.885c0-2.604 1.119-3.723 3.722-3.723h521.965c2.604 0 3.723 1.119 3.723 3.723v418.531z"/></svg>