<svg xmlns="http://www.w3.org/2000/svg" width="512" height="512"><path d="M511.922 456.027L480.03 129.135c-.72-7.374-4.52-13.709-10.054-17.812V54.358c0-9.167-7.458-16.625-16.625-16.625H58.649c-9.167 0-16.625 7.458-16.625 16.625v56.964c-5.536 4.103-9.335 10.438-10.054 17.812L.078 456.027a16.656 16.656 0 0 0 4.232 12.784 16.658 16.658 0 0 0 12.313 5.455h190.575a25.144 25.144 0 0 0 24.846-20.963l23.427-137.216c.043-.251.101-.348.098-.348.163-.13.701-.129.851-.012 0 .001.063.094.108.359l23.427 137.215a25.143 25.143 0 0 0 24.846 20.964h190.575c4.681 0 9.168-1.989 12.313-5.455a16.65 16.65 0 0 0 4.233-12.783zm-47.905-325.328l9.853 100.984c-7.98-4.243-20.759-11.999-33.789-23.871-25.822-23.531-41.365-52.21-46.304-85.345h61.167a9.085 9.085 0 0 1 9.073 8.232zM58.112 54.358c0-.295.24-.536.536-.536h394.703c.295 0 .536.241.536.536v52.019h-146.94V80.1a8.043 8.043 0 0 0-8.044-8.044 8.043 8.043 0 0 0-8.044 8.044v26.278h-69.716V80.1a8.044 8.044 0 0 0-16.088 0v26.278H58.112v-52.02zM308.019 251.71c0 5.027-4.09 9.117-9.117 9.117s-9.117-4.09-9.117-9.117c0-5.027 4.09-9.117 9.117-9.117s9.117 4.09 9.117 9.117zm-85.805 0c0 5.027-4.09 9.117-9.117 9.117s-9.117-4.09-9.117-9.117c0-5.027 4.09-9.117 9.117-9.117s9.117 4.09 9.117 9.117zM47.982 130.697a9.085 9.085 0 0 1 9.074-8.231h61.166c-4.938 33.136-20.481 61.814-46.304 85.345-13.029 11.873-25.809 19.629-33.789 23.872l9.853-100.986zM16.624 458.178c-.064 0-.237 0-.397-.176a.495.495 0 0 1-.136-.412l20.21-207.158c1.812-.757 9.149-3.958 19.099-10.105l-21.211 217.85H16.624zm288.177 0a9.094 9.094 0 0 1-8.987-7.583l-23.428-137.216c-1.39-8.141-8.128-13.826-16.387-13.826s-14.998 5.686-16.388 13.826l-23.427 137.216a9.094 9.094 0 0 1-8.987 7.583H50.353L72.748 228.18a184.116 184.116 0 0 0 9.532-8.044c35.909-32.489 48.377-69.839 52.185-97.67h70.589v105.362c-9.964 3.366-17.161 12.796-17.161 23.882 0 13.898 11.307 25.205 25.205 25.205s25.205-11.307 25.205-25.205c0-11.085-7.197-20.515-17.161-23.882V122.466h69.716v105.362c-9.964 3.366-17.161 12.796-17.161 23.882 0 13.898 11.307 25.205 25.205 25.205s25.205-11.307 25.205-25.205c0-11.085-7.197-20.515-17.161-23.882V122.466h70.594c6.413 47.277 31.613 79.06 52.18 97.67a183.618 183.618 0 0 0 9.532 8.044l22.395 229.998H304.801zm190.972-.176c-.159.176-.332.176-.397.176h-17.564L456.6 240.327c9.948 6.146 17.284 9.347 19.099 10.105l20.21 207.159a.498.498 0 0 1-.136.411z" fill="#222129"/></svg>