<svg xmlns="http://www.w3.org/2000/svg" width="500" height="500"><path d="M250.313 294.381l-12.985-43.111c-1.693-5.627-1.912-6.627-1.896-12.273V13.196H121.559v242.996c0 13.886-5.407 26.941-15.227 36.759l-89.684 87.683c-22.199 22.2-22.199 55.32 0 77.52 11.1 11.099 25.681 16.649 40.26 16.649 14.58 0 29.16-5.55 40.26-16.649l56.891-53.891c9.263-9.263 21.52-15.268 34.518-16.906a74.016 74.016 0 0 0 50.584-29.801c.801-1.096 2.47-2.785 3.215-3.932 11.921-18.339 14.246-38.3 7.937-59.243zm-113.9-266.332h84.166v44.559h-84.166V28.049zm0 59.412h84.166v24.755h-84.166V87.461zm43.497 286.362c-13.687 3.06-26.403 9.991-36.352 19.939l-56.891 53.891c-16.407 16.409-43.105 16.409-59.515 0-16.408-16.407-16.408-40.105 0-56.515l89.684-87.683c12.623-12.624 19.576-29.408 19.576-47.262V127.068h84.166v111.886c-.016 5.287.192 6.35 1.495 12.485-31.314 36.155-44.126 71.883-42.163 122.384zm49.119-25.724a60.248 60.248 0 0 1-1.726 2.503c-.192.266-.394.52-.589.782a57.26 57.26 0 0 1-1.259 1.627c-.237.295-.481.584-.724.874-.411.49-.827.974-1.252 1.448-.256.285-.511.569-.771.849-.444.479-2.29 1.439-2.75 1.901-.247.25-5.614 3.552-6.221 3.985-.283.202-.572.396-.858.593a57.624 57.624 0 0 1-2.568 1.67c-.552.339-1.11.666-1.673.987-.308.176-.616.353-.927.521-.627.342-1.263.668-1.902.987-.251.125-.498.258-.751.379a57.54 57.54 0 0 1-2.738 1.237c-.063.026-.13.05-.193.076-.855.356-1.72.691-2.594 1.008-.292.106-.588.201-.881.302-.655.226-1.314.444-1.979.647a61.31 61.31 0 0 1-1.035.302c-.322.092-.648.174-.973.261-1.226-41.811 8.729-72.025 32.403-102.322l9.02 29.944a59.449 59.449 0 0 1 2.518 15.934 59.2 59.2 0 0 1-9.577 33.505zm267.808-53.718l-12.985-43.111c-1.693-5.627-1.912-6.627-1.896-12.273V13.196H368.083v242.996c0 13.886-5.407 26.941-15.227 36.759l-89.684 87.683c-22.199 22.2-22.199 55.32 0 77.52 11.1 11.099 25.681 16.649 40.26 16.649s29.16-5.55 40.26-16.649l56.891-53.891c9.263-9.263 21.52-15.268 34.518-16.906 20.345-2.566 37.017-11.31 49.037-27.759l4.03-4.849c11.92-18.339 14.978-39.425 8.669-60.368zm-113.9-266.332h84.166v44.559h-84.166V28.049zm0 59.412h84.166v24.755h-84.166V87.461zm43.496 286.362c-13.687 3.061-26.403 9.991-36.352 19.939l-56.891 53.891c-16.407 16.409-43.105 16.409-59.515 0-16.408-16.407-16.408-40.105 0-56.515l89.684-87.683c12.623-12.624 19.576-29.408 19.576-47.262V127.068h84.166v111.886c-.016 5.287.192 6.35 1.495 12.485-31.313 36.156-44.126 71.884-42.163 122.384zm49.119-25.724a59.294 59.294 0 0 1-1.726 2.503c-.192.266-.394.52-.589.782-.412.55-.829 1.094-1.258 1.627-.237.295-.481.585-.725.875-.41.489-.826.973-1.251 1.446-.256.285-.512.569-.772.85-.444.479-.899.945-1.357 1.408-.249.251-9.551 5.804-10.099 6.154a61.988 61.988 0 0 1-2.606 1.571 47.664 47.664 0 0 1-2.823 1.505c-.256.128-.508.263-.766.387-.899.434-1.809.848-2.73 1.234-.075.031-.152.059-.227.09-.844.351-1.696.682-2.558.994-.299.107-.601.206-.902.309-.648.223-1.3.439-1.957.641-.35.106-.701.207-1.053.308-.319.091-.642.172-.963.258-1.226-41.81 8.73-72.024 32.404-102.323l9.02 29.944a59.212 59.212 0 0 1-7.062 49.437z"/></svg>