<svg xmlns="http://www.w3.org/2000/svg" width="512" height="512"><path d="M498.615 47.454h-45.561c.398-6.759.685-13.56.83-20.402a14.673 14.673 0 0 0-4.163-10.518 14.667 14.667 0 0 0-10.409-4.372H187.707a14.672 14.672 0 0 0-10.414 4.379 14.653 14.653 0 0 0-4.157 10.505c.145 6.851.424 13.656.823 20.408h-45.555c-7.38 0-13.385 6.006-13.385 13.388 0 41.241 11.327 80.18 31.893 109.642 4.552 6.523 9.475 12.428 14.695 17.701-1.9-.069-3.806-.116-5.723-.116C69.93 188.068 0 257.998 0 343.953s69.93 155.885 155.885 155.885c25.215 0 49.047-6.024 70.143-16.699h185.017c6.893 0 12.5-5.607 12.5-12.5v-15.663c0-6.893-5.607-12.5-12.5-12.5h-16.421V423a7.5 7.5 0 0 0-7.5-7.5 7.5 7.5 0 0 0-7.5 7.5v19.476H276.595a158.826 158.826 0 0 0 3.637-4.623c.643-.823 1.278-1.659 1.905-2.508h75.04c5.79 0 10.5-4.71 10.5-10.5v-33.751c0-5.79-4.71-10.5-10.5-10.5H307.41a155.37 155.37 0 0 0 2.044-9.817h70.169V394a7.5 7.5 0 0 0 7.5 7.5 7.5 7.5 0 0 0 7.5-7.5v-25.724c0-6.893-5.607-12.5-12.5-12.5h-16.419v-16.622c0-7.699-6.264-13.963-13.962-13.963H339.16v-16.639h9.649c6.876 0 12.471-5.595 12.471-12.472v-24.023c17.388-11.776 33.351-30.069 47.066-54.246 27.355-3.364 52.742-20.071 71.761-47.327C500.673 141.023 512 102.085 512 60.842c0-7.382-6.004-13.388-13.385-13.388zM178.571 92.351c3.677 24.841 9.123 48.467 16.203 70.197-3.729-3.927-7.427-8.503-11.046-13.688-9.158-13.122-16.92-34.079-20.989-56.509h15.832zm-19.359 69.547c-18.56-26.588-28.899-61.85-29.186-99.444h45.035c.439 5.002.94 9.972 1.516 14.896h-16.842a12.47 12.47 0 0 0-12.305 14.513c4.254 25.63 13.224 50.146 23.997 65.58 10.354 14.838 21.692 25.576 33.136 31.47a301.374 301.374 0 0 0 3.582 8.177 154.292 154.292 0 0 0-18.297-5.284c-11.314-7.04-21.722-17.136-30.636-29.908zm-3.326 41.171a140.555 140.555 0 0 1 36.216 4.727l-36.216 26.313-36.216-26.313a140.593 140.593 0 0 1 36.216-4.727zm-53.631 10.615l46.13 33.517V256a7.5 7.5 0 0 0 7.5 7.5 7.5 7.5 0 0 0 7.5-7.5v-8.8l46.13-33.516c23.722 9.802 44.207 25.895 59.354 46.198l-16.911 52.046-38.671 11.458-49.902-36.257V285a7.5 7.5 0 0 0-7.5-7.5 7.5 7.5 0 0 0-7.5 7.5v2.13l-50.328 36.566-36.921-9.692-17.781-54.722c15.102-20.019 35.413-35.893 58.9-45.598zm177.098 62.475a139.903 139.903 0 0 1 17.248 60.898l-29.962-21.768 12.714-39.13zm-76.555 58.147l-17.919 55.149h-57.987l-17.918-55.149 46.912-34.084 46.912 34.084zM32.83 275.424l13.337 41.049-31.107 23.465c.658-23.362 7.035-45.314 17.77-64.514zm5.772 146.498c-12.591-18.877-20.746-40.949-22.974-64.72l40.076-29.117 38.786 10.182 18.941 58.299-19.095 25.356H38.602zm11.523 15h42.377l12.474 38.395c-21.258-8.267-40.028-21.553-54.851-38.395zm139.553 43.81a140.671 140.671 0 0 1-33.793 4.106 140.76 140.76 0 0 1-33.341-3.996l-16.216-49.909 19.938-26.477h60.217l20.428 23.239-17.233 53.037zm17.591-5.596l13.187-40.587h43.231c-15.018 17.841-34.367 31.919-56.418 40.587zm201.276-17.66v10.663H249.994a157.232 157.232 0 0 0 12.603-10.663h145.948zm-133.822-37.927h-55.001l-21.064-23.962 18.774-57.782 38.839-11.508 40.034 29.086c-1.893 23.47-9.561 45.335-21.582 64.166zm77.954-23.955v24.751h-60.951a155.21 155.21 0 0 0 11.242-24.751h49.709zm-44.963-87.042h16.446v16.639h-13.522a155.121 155.121 0 0 0-2.924-16.639zm42.99 31.639v15.585h-39.379c.294-3.903.446-7.846.446-11.823 0-1.258-.018-2.511-.048-3.762h38.981zm-4.425-46.638h-42.874a155.143 155.143 0 0 0-7.373-17.811h50.247v17.811zm54.053-92.501c-14.125 27.739-30.91 47.964-49.115 59.69h-63.571c-14.341-22.628-34.344-41.328-58.005-54.09a235.917 235.917 0 0 1-2.953-5.6c-23.407-45.974-37.091-107.709-38.545-173.891h250.734c-.632 28.769-3.571 56.829-8.737 83.407a7.5 7.5 0 1 0 14.725 2.861 475.062 475.062 0 0 0 3.6-21.08h15.816c-4.068 22.435-11.831 43.389-20.989 56.509-3.617 5.183-7.313 9.756-11.039 13.68a381.934 381.934 0 0 0 4.7-15.52 7.5 7.5 0 1 0-14.446-4.037c-5.971 21.36-13.431 40.898-22.175 58.071zm67.474-39.153c-13.953 19.995-31.571 33.426-50.62 38.848a297.008 297.008 0 0 0 5.258-11.828c11.447-5.893 22.79-16.633 33.146-31.475 10.772-15.434 19.744-39.949 23.999-65.588a12.475 12.475 0 0 0-2.796-10.106 12.456 12.456 0 0 0-9.509-4.399h-16.862a515.8 515.8 0 0 0 1.531-14.896h45.041c-.288 37.596-10.627 72.858-29.188 99.444z" fill="#222129"/><path d="M313.51 71.516c-37.579 0-68.152 30.573-68.152 68.153 0 37.578 30.573 68.15 68.152 68.15s68.152-30.572 68.152-68.15c0-37.58-30.573-68.153-68.152-68.153zm0 121.303c-29.308 0-53.152-23.843-53.152-53.15 0-29.309 23.844-53.153 53.152-53.153s53.152 23.845 53.152 53.153-23.844 53.15-53.152 53.15z" fill="#222129"/><path d="M323.558 130.348h-20.095a3.735 3.735 0 0 1-3.732-3.729v-2.364a3.734 3.734 0 0 1 3.732-3.729h23.049c4.142 0 7.5-3.357 7.5-7.5s-3.358-7.5-7.5-7.5h-5.502v-5.502a7.5 7.5 0 0 0-7.5-7.5 7.5 7.5 0 0 0-7.5 7.5v5.502h-2.547c-10.329 0-18.732 8.402-18.732 18.729v2.364c0 10.327 8.403 18.729 18.732 18.729h20.095a3.734 3.734 0 0 1 3.73 3.729v2.366a3.733 3.733 0 0 1-3.73 3.728h-27.78c-4.142 0-7.5 3.357-7.5 7.5s3.358 7.5 7.5 7.5h10.232v6.096a7.5 7.5 0 0 0 7.5 7.5 7.5 7.5 0 0 0 7.5-7.5v-6.096h2.548c10.328 0 18.73-8.401 18.73-18.728v-2.366c0-10.328-8.403-18.729-18.73-18.729zm128.063 144.227c-13.701-5.68-16.86-8.841-22.534-22.545a10.532 10.532 0 0 0-9.765-6.53c-4.288 0-8.12 2.561-9.763 6.525-5.676 13.709-8.835 16.871-22.534 22.549a10.54 10.54 0 0 0-6.524 9.765 10.53 10.53 0 0 0 6.521 9.762c13.701 5.681 16.86 8.842 22.539 22.557a10.539 10.539 0 0 0 9.761 6.521c4.292 0 8.124-2.563 9.763-6.525 5.676-13.709 8.835-16.871 22.528-22.548a10.533 10.533 0 0 0 6.53-9.766c0-4.292-2.562-8.125-6.522-9.765zm-32.3 27.548c-4.467-8.303-9.476-13.313-17.779-17.784 8.303-4.47 13.312-9.48 17.779-17.783 4.467 8.303 9.476 13.313 17.778 17.783-8.301 4.47-13.31 9.48-17.778 17.784zM101.991 77.44c-10.721-4.444-13.003-6.728-17.443-17.451a9.948 9.948 0 0 0-9.223-6.167 9.955 9.955 0 0 0-9.221 6.162C61.663 70.713 59.38 72.997 48.66 77.44a9.952 9.952 0 0 0-6.16 9.221 9.953 9.953 0 0 0 6.159 9.221c10.721 4.443 13.003 6.728 17.448 17.463a9.954 9.954 0 0 0 9.218 6.155 9.949 9.949 0 0 0 9.221-6.162c4.441-10.729 6.724-13.013 17.442-17.455 3.743-1.551 6.162-5.17 6.162-9.222s-2.418-7.671-6.159-9.221zM75.325 98.123c-3.02-4.99-6.469-8.44-11.458-11.462 4.988-3.021 8.438-6.472 11.458-11.461 3.02 4.989 6.47 8.439 11.459 11.461-4.988 3.021-8.438 6.472-11.459 11.462z" fill="#222129"/></svg>