<svg xmlns="http://www.w3.org/2000/svg" viewBox="0 0 511.999 511.999" width="512" height="512"><path d="M447.446 58.191L423.41 42.418a.156.156 0 0 1-.025-.017L383.36 16.135C365.884 4.67 356.367 0 332.223 0H179.776c-24.145 0-33.662 4.67-51.138 16.137L88.645 42.381l-.057.037-24.034 15.773a8.885 8.885 0 0 0-2.798 11.908l32.514 55.683a8.885 8.885 0 0 0 11.745 3.416l24.249-12.508c.046-.024.092-.047.139-.073l16.595-8.56v138.579c0 .756.104 1.485.282 2.186l6.284 254.512a8.884 8.884 0 0 0 8.882 8.665h66.719a8.884 8.884 0 0 0 8.805-7.702L256 369.973l18.03 134.323a8.885 8.885 0 0 0 8.806 7.702h66.718a8.885 8.885 0 0 0 8.882-8.665l6.284-254.512c.178-.7.282-1.43.282-2.186V108.059l16.669 8.599.024.012.04.021 24.25 12.508a8.88 8.88 0 0 0 11.745-3.416L450.243 70.1a8.888 8.888 0 0 0-2.797-11.909zM269.913 17.769L256 33.478l-13.913-15.709h27.826zm-13.56 96.515c15.293-4.298 30.039-10.211 41.707-14.89l2.982-1.194c3.208-1.281 7.709-2.216 10.943.604 2.18 1.9 3.181 5.036 2.491 7.801-.919 3.697-4.524 5.362-7.51 6.109l-50.614 7.752v-6.181h.001zm-150.99-4.742L81.352 68.421l8.986-5.898 23.638 42.575-8.613 4.444zm55.143-23.65a8.88 8.88 0 0 0-8.696-.309l-22.034 11.365-24.54-44.2 33.151-21.755c16.074-10.548 22.239-13.224 41.389-13.224h38.574l20.234 22.846v59.6c-15.075 3.002-29.241 3.252-38.033-2.908a8.885 8.885 0 0 0-10.196 14.552c12.794 8.963 30.222 9.602 48.227 6.509v4.818l-28.987 4.44c-19.565 2.996-28.118 15.626-27.914 26.813.089 4.907 4.197 8.819 9.044 8.721a8.883 8.883 0 0 0 8.721-9.044c-.063-3.45 4.327-7.623 12.838-8.926l26.298-4.028v96.591h-73.817V93.479a8.878 8.878 0 0 0-4.259-7.587zm180.379 408.339h-50.279l-25.801-192.225a8.885 8.885 0 0 0-17.612 0l-25.801 192.225h-50.279l-5.895-238.709h181.559l-5.892 238.709zM360.19 85.583a8.888 8.888 0 0 0-8.696.309 8.881 8.881 0 0 0-4.262 7.587v144.274h-90.879v-99.312l53.678-8.221c.226-.034.452-.078.675-.13 10.956-2.56 18.616-9.555 21.015-19.194 2.292-9.211-.868-19.214-8.054-25.482-7.69-6.706-18.339-8.059-29.217-3.715l-3.003 1.204c-8.963 3.595-21.7 8.702-35.094 12.77V55.754a8.885 8.885 0 0 0 6.296-2.986l31-34.999h38.575c19.148 0 25.314 2.676 41.388 13.224l33.152 21.755-24.541 44.201-22.033-11.366zm46.447 23.959l-8.616-4.443 23.636-42.575 8.989 5.898-24.009 41.12z" fill="#222129"/></svg>