<svg xmlns="http://www.w3.org/2000/svg" viewBox="0 0 60 60" width="512" height="512"><g fill="#222129"><path d="M36 21H24v6h12v-6zm-2 4h-8v-2h8v2z"/><circle cx="11" cy="26" r="1"/><circle cx="11" cy="41" r="1"/><circle cx="49" cy="26" r="1"/><circle cx="49" cy="41" r="1"/><path d="M57.2 13.4A7.04 7.04 0 0 0 53 12v-.181A2.823 2.823 0 0 0 50.181 9H47.82A2.823 2.823 0 0 0 45 11.819V12h-1V9h-2V7.889A6.896 6.896 0 0 0 35.111 1H24.889A6.896 6.896 0 0 0 18 7.889V9h-2v3h-1v-.181A2.823 2.823 0 0 0 12.181 9H9.819A2.823 2.823 0 0 0 7 11.819V12a7.04 7.04 0 0 0-4.2 1.4A7.035 7.035 0 0 0 0 19v34.578A5.428 5.428 0 0 0 5.422 59h49.156A5.428 5.428 0 0 0 60 53.578V19a7.035 7.035 0 0 0-2.8-5.6zM56 15c1.252.939 2 2.435 2 4v15h-3v-3h-2V14c1.075 0 2.141.355 3 1zm-9 24h4v3c0 1.103-.897 2-2 2s-2-.897-2-2v-3zm5-2h-7v-4h3v1a1 1 0 1 0 2 0v-1h3v4h-1zm-5-25.181a.82.82 0 0 1 .819-.819h2.361a.82.82 0 0 1 .82.819V31h-1v-1a1 1 0 1 0-2 0v1h-1V11.819zM42 12h-6v-1h6v1zm-6-3h-2v3h-8V9h-2V7.444a.561.561 0 0 1 .778-.521 13.567 13.567 0 0 0 10.445 0 .56.56 0 0 1 .777.521V9zM20 7.889A4.894 4.894 0 0 1 24.889 3h10.223A4.894 4.894 0 0 1 40 7.889V9h-2V7.444c0-.857-.425-1.653-1.138-2.13a2.552 2.552 0 0 0-2.403-.238 11.603 11.603 0 0 1-8.918 0 2.555 2.555 0 0 0-2.403.238A2.558 2.558 0 0 0 22 7.444V9h-2V7.889zM18 11h6v1h-6v-1zm-2 3h29v17h-2v3H17v-3h-2V14h1zM9 39h4v3c0 1.103-.897 2-2 2s-2-.897-2-2v-3zm5-2H7v-4h3v1a1 1 0 1 0 2 0v-1h3v4h-1zM9 11.819A.82.82 0 0 1 9.819 11h2.361a.82.82 0 0 1 .82.819V31h-1v-1a1 1 0 1 0-2 0v1H9V11.819zM4 15c.859-.645 1.925-1 3-1v17H5v3H2V19c0-1.565.748-3.061 2-4zM2 53.578V52h1.388A3.616 3.616 0 0 1 7 55.612V57H5.422A3.426 3.426 0 0 1 2 53.578zM3.388 50H2V36h3v3h2v3c0 2.206 1.794 4 4 4s4-1.794 4-4v-3h2v-3h12v21H9v-1.388A5.619 5.619 0 0 0 3.388 50zM58 53.578A3.426 3.426 0 0 1 54.578 57H53v-1.388A3.616 3.616 0 0 1 56.612 52H58v1.578zM56.612 50A5.619 5.619 0 0 0 51 55.612V57H31V36h12v3h2v3c0 2.206 1.794 4 4 4s4-1.794 4-4v-3h2v-3h3v14h-1.388z"/></g></svg>