<svg xmlns="http://www.w3.org/2000/svg" width="96" height="84" viewBox="0 0 479.916 479.916"><path fill="#f9d600" d="M399.556 77.384c-28.3-14.5-57.4-26.7-87.2-37.5-4.2-8.8-19.5-9-27.6-8-14.801 2-29.9 4-44.7 4.3-14.8-.3-29.9-2.3-44.7-4.3-8-1.1-23.4-.8-27.6 8-29.9 10.9-58.9 23-87.2 37.5-6.8 3.5-82.9 45-80.5 49 11.3 18.8 56.6 103.1 62.2 103.1 7.9 0 21.3-14.5 28.6-11.9.4 16.8 1.1 211.4 1.1 222.6 0 7.1 83.1 8.301 148 8.301 65 0 148-1.201 148-8.301.1-11.299.699-205.8 1.1-222.6 7.3-2.6 20.7 11.9 28.6 11.9 5.601 0 50.9-84.3 62.2-103.1 2.499-3.9-73.501-45.5-80.3-49zm-263.8 348.8h-24v-31.5h24v31.5zm80.4-189c0 .8-.7 1.5-1.5 1.5h-23.8c-.8 0-1.5-.7-1.5-1.5v-59.2c0-1.2-1.4-2-2.4-1.2-3.5 2.5-6.9 4.6-10.2 6.2-3.6 1.8-8.1 3.6-13.3 5.3-1 .3-2-.4-2-1.5v-18.6c0-.7.4-1.2 1.1-1.5 8.5-2.8 15.2-6.2 20-10.2 4.8-3.9 8.5-8.7 11.3-14.3.3-.5.8-.9 1.4-.9h19.5c.8 0 1.5.7 1.5 1.5v94.4h-.1zm89.199 0c0 .8-.7 1.5-1.5 1.5h-23.8c-.8 0-1.5-.7-1.5-1.5v-59.2c0-1.2-1.4-2-2.4-1.2-3.5 2.5-6.899 4.6-10.2 6.2-3.6 1.8-8.1 3.6-13.3 5.3-1 .3-2-.4-2-1.5v-18.6c0-.7.4-1.2 1.101-1.5 8.5-2.8 15.199-6.2 20-10.2 4.8-3.9 8.5-8.7 11.3-14.3.3-.5.8-.9 1.399-.9h19.501c.8 0 1.5.7 1.5 1.5v94.4h-.101z"/></svg>