<?xml version="1.0" encoding="utf-8"?>
<!-- Generator: Adobe Illustrator 17.0.1, SVG Export Plug-In . SVG Version: 6.00 Build 0)  -->
<!DOCTYPE svg PUBLIC "-//W3C//DTD SVG 1.1//EN" "http://www.w3.org/Graphics/SVG/1.1/DTD/svg11.dtd">
<svg version="1.1" id="Capa_1" xmlns="http://www.w3.org/2000/svg" xmlns:xlink="http://www.w3.org/1999/xlink" x="0px" y="0px"
	 width="397px" height="396px" viewBox="15.5 54.5 397 396" enable-background="new 15.5 54.5 397 396" xml:space="preserve">
<g>
	<path fill="#21212B" d="M396.192,379.09c-17.492-51.466-63.712-86.864-117.068-91.682c-17.867,18.92-39.988,30.924-65.04,30.924
		c-25.032,0-47.171-12.003-65.021-30.924c-53.388,4.818-99.61,40.216-117.102,91.69l-9.669,28.461
		c-2.766,8.19-1.441,17.214,3.599,24.24C30.931,438.828,39.047,443,47.686,443h332.782c8.655,0,16.771-4.172,21.812-11.201
		c5.022-7.026,6.365-16.051,3.582-24.24L396.192,379.09z"/>
	<path fill="#21212B" d="M127.319,160.865c0,63.836,38.86,132.335,86.766,132.335c47.925,0,86.783-68.499,86.783-132.335
		C300.868,28.539,127.319,28.277,127.319,160.865z"/>
</g>
</svg>
