<svg xmlns="http://www.w3.org/2000/svg" viewBox="0 0 512.001 512.001"><path d="M501.403 17.526H446a7.499 7.499 0 0 0-7.5 7.5c0 4.143 3.357 7.5 7.5 7.5h51v30.469H394.365l-26.502-30.469H410c4.143 0 7.5-3.357 7.5-7.5s-3.357-7.5-7.5-7.5H96.746c-5.843 0-10.597 4.755-10.597 10.6v39.269c0 5.845 4.753 10.601 10.597 10.601h106.052v231.209c0 5.845 4.754 10.601 10.597 10.601h171.36c5.843 0 10.597-4.756 10.597-10.601v-48.204c0-4.143-3.357-7.5-7.5-7.5s-7.5 3.357-7.5 7.5v13.836H217.798V69.795l28.378-32.308c5.399 24.258 27.06 42.452 52.899 42.452 25.944 0 47.679-18.341 52.967-42.746l28.31 32.547v155.261c0 4.143 3.357 7.5 7.5 7.5s7.5-3.357 7.5-7.5V77.995h106.052c5.843 0 10.597-4.756 10.597-10.601V28.126c-.001-5.845-4.755-10.6-10.598-10.6zM217.292 70.37l.161-.183c-.049.266-.102.366-.161.183zm163.06 219.467v14.968H217.798v-14.968h162.554zM203.807 62.995H101.149V32.526h129.42l-26.762 30.469zm90.725-30.469h9.087v3.602h-9.087v-3.602zm4.543 32.413c-19.293 0-35.377-14.026-38.613-32.413h19.07v11.102c0 4.143 3.357 7.5 7.5 7.5h24.087c4.143 0 7.5-3.357 7.5-7.5V32.526h19.066c-3.242 18.395-19.322 32.413-38.61 32.413z"/><path d="M195.892 115.938V99.51h-.001c0-6.811-5.542-12.354-12.354-12.354H88a7.5 7.5 0 0 0-7.5 7.5 7.5 7.5 0 0 0 7.5 7.5h92.891v17.345H15v-17.345h36.999a7.5 7.5 0 0 0 7.5-7.5 7.5 7.5 0 0 0-7.5-7.5H12.353C5.542 87.156 0 92.698 0 99.51v27.491c0 .069.009.138.01.207.045 32.916.348 96.987 1.852 163.595 2.143 94.964 5.897 160.466 11.158 194.689a10.542 10.542 0 0 0 10.475 8.983h41.578c5.007 0 9.373-3.561 10.379-8.463 7.994-38.868 13.092-195.613 13.092-264.613v-11.102h18.544v11.102c0 35.896 1.409 93.09 3.507 142.32 1.521 35.659 4.788 98.963 9.585 122.286 1.004 4.907 5.37 8.47 10.38 8.47h41.58c5.202 0 9.599-3.725 10.453-8.856 8.472-50.839 11.555-151.853 12.649-227.64.894-61.688.829-118.31.65-142.041zM61.417 479.476H27.295c-.475-3.37-.931-6.995-1.37-10.832h37.043c-.503 4.098-1.02 7.742-1.551 10.832zM73.544 221.4c0 56.576-3.4 172.314-8.984 232.244H24.397c-8.002-87.568-9.212-254.387-9.371-319.143h27.466l31.052 69.888V221.4zm36.181-26.102H85.918l-27.012-60.797h77.992l-27.173 60.797zm58.661 284.178h-34.169c-.534-3.119-1.047-6.771-1.54-10.832h37.221a411.73 411.73 0 0 1-1.512 10.832zm11.857-221.713c-.902 62.454-3.15 142.065-8.641 195.881h-40.497c-2.598-28.188-4.476-65.99-5.524-90.563-2.089-49.04-3.493-105.978-3.493-141.682v-17.002l31.241-69.896h27.65c.077 28.582-.027 74.305-.736 123.262z"/></svg>